<?xml version="1.0" encoding="utf-8"?>
<!-- Generator: Adobe Illustrator 25.0.1, SVG Export Plug-In . SVG Version: 6.00 Build 0)  -->
<svg version="1.1" id="Layer_1" xmlns="http://www.w3.org/2000/svg" xmlns:xlink="http://www.w3.org/1999/xlink" x="0px" y="0px"
	 viewBox="0 0 500 500" style="enable-background:new 0 0 500 500;" xml:space="preserve">
<style type="text/css">
	.st0{fill:#000000;}
</style>
<g>
	<g>
		<g>
			<path class="st0" d="M413.8,267.1h-97c-27.7,0-50.2,22.5-50.2,50.2v97c0,27.7,22.5,50.2,50.2,50.2h97c27.7,0,50.2-22.5,50.2-50.2
				v-97C464,289.6,441.5,267.1,413.8,267.1z M430.6,414.2c0,9.2-7.5,16.7-16.7,16.7h-97c-9.2,0-16.7-7.5-16.7-16.7v-97
				c0-9.2,7.5-16.7,16.7-16.7h97c9.2,0,16.7,7.5,16.7,16.7V414.2z M183.1,267.1h-97c-27.7,0-50.2,22.5-50.2,50.2v97
				c0,27.7,22.5,50.2,50.2,50.2h97c27.7,0,50.2-22.5,50.2-50.2v-97C233.3,289.6,210.8,267.1,183.1,267.1z M199.8,414.2
				c0,9.2-7.5,16.7-16.7,16.7h-97c-9.2,0-16.7-7.5-16.7-16.7v-97c0-9.2,7.5-16.7,16.7-16.7h97c9.2,0,16.7,7.5,16.7,16.7V414.2z
				 M183.1,36.4h-97C58.5,36.4,36,58.9,36,86.5v97c0,27.7,22.5,50.2,50.2,50.2h97c27.7,0,50.2-22.5,50.2-50.2v-97
				C233.3,58.9,210.8,36.4,183.1,36.4z M199.8,183.5c0,9.2-7.5,16.7-16.7,16.7h-97c-9.2,0-16.7-7.5-16.7-16.7v-97
				c0-9.2,7.5-16.7,16.7-16.7h97c9.2,0,16.7,7.5,16.7,16.7V183.5z M413.8,36.4h-97c-27.7,0-50.2,22.5-50.2,50.2v97
				c0,27.7,22.5,50.2,50.2,50.2h97c27.7,0,50.2-22.5,50.2-50.2v-97C464,58.9,441.5,36.4,413.8,36.4z M430.6,183.5
				c0,9.2-7.5,16.7-16.7,16.7h-97c-9.2,0-16.7-7.5-16.7-16.7v-97c0-9.2,7.5-16.7,16.7-16.7h97c9.2,0,16.7,7.5,16.7,16.7V183.5z"/>
		</g>
	</g>
</g>
</svg>
