<?xml version="1.0" encoding="utf-8"?>
<!-- Generator: Adobe Illustrator 25.0.1, SVG Export Plug-In . SVG Version: 6.00 Build 0)  -->
<svg version="1.1" id="Object" xmlns="http://www.w3.org/2000/svg" xmlns:xlink="http://www.w3.org/1999/xlink" x="0px" y="0px"
	 viewBox="0 0 828.9 642.9" style="enable-background:new 0 0 828.9 642.9;" xml:space="preserve">
<style type="text/css">
	.st0{fill:#2B2C30;}
	.st1{fill:#303135;}
	.st2{fill:#4C4E54;}
	.st3{fill:#FCFCFC;}
	.st4{fill:#9295A0;}
	.st5{fill:none;}
</style>
<g>
	<g>
		<rect x="365.8" y="533.9" class="st0" width="101" height="101"/>
		<rect x="278.8" y="626.9" class="st1" width="275" height="16"/>
	</g>
	<path class="st2" d="M802,545.9H29.6c-8.7,0-15.8-7.1-15.8-15.8v-35.4c0-8.7,7.1-15.8,15.8-15.8H802c8.7,0,15.8,7.1,15.8,15.8v35.4
		C817.8,538.8,810.7,545.9,802,545.9z"/>
	<path class="st0" d="M801.8,11.5h-772c-8.8,0-16,7.2-16,16v468h804v-468C817.8,18.7,810.6,11.5,801.8,11.5z M798.9,477.7H32.5V32.5
		h766.4V477.7L798.9,477.7z"/>
	<path class="st3" d="M322.5,486.4L322.5,486.4z"/>
	<path class="st4" d="M428,509.7l-25.4,25.4c-3-3.2-4.8-7.5-4.8-12.2c0-9.9,8.1-18,18-18C420.5,504.9,424.8,506.7,428,509.7z"/>
	<path class="st0" d="M415.8,522.9"/>
	<path class="st0" d="M433.8,522.9c0,9.9-8.1,18-18,18c-5.2,0-9.9-2.2-13.2-5.8l25.4-25.4C431.6,513,433.8,517.7,433.8,522.9z"/>
	<line class="st5" x1="402.6" y1="535.1" x2="395.8" y2="541.9"/>
</g>
<path d="M704.6,321.5"/>
</svg>
