<?xml version="1.0" encoding="utf-8"?>
<!-- Generator: Adobe Illustrator 25.0.1, SVG Export Plug-In . SVG Version: 6.00 Build 0)  -->
<svg version="1.1" id="Object" xmlns="http://www.w3.org/2000/svg" xmlns:xlink="http://www.w3.org/1999/xlink" x="0px" y="0px"
	 viewBox="0 0 828.9 642.9" style="enable-background:new 0 0 828.9 642.9;" xml:space="preserve">
<style type="text/css">
	.st0{fill:#2B2C30;}
	.st1{fill:#303135;}
	.st2{fill:#4C4E54;}
	.st3{fill:#FCFCFC;}
	.st4{fill:#9295A0;}
	.st5{fill:none;}
	.st6{fill:#FFFFFF;}
	.st7{fill:url(#SVGID_1_);}
	.st8{fill:url(#SVGID_2_);}
	.st9{fill:url(#SVGID_3_);}
	.st10{fill:url(#SVGID_4_);}
</style>
<g>
	<g>
		<rect x="365.8" y="533.9" class="st0" width="101" height="101"/>
		<rect x="278.8" y="626.9" class="st1" width="275" height="16"/>
	</g>
	<path class="st2" d="M802,545.9H29.6c-8.7,0-15.8-7.1-15.8-15.8v-35.4c0-8.7,7.1-15.8,15.8-15.8H802c8.7,0,15.8,7.1,15.8,15.8v35.4
		C817.8,538.8,810.7,545.9,802,545.9z"/>
	<path class="st0" d="M801.8,11.5h-772c-8.8,0-16,7.2-16,16v468h804v-468C817.8,18.7,810.6,11.5,801.8,11.5z M798.9,477.7H32.5V32.5
		h766.4L798.9,477.7L798.9,477.7z"/>
	<path class="st3" d="M322.5,486.4L322.5,486.4z"/>
	<path class="st4" d="M428,509.7l-25.4,25.4c-3-3.2-4.8-7.5-4.8-12.2c0-9.9,8.1-18,18-18C420.5,504.9,424.8,506.7,428,509.7z"/>
	<path class="st0" d="M415.8,522.9"/>
	<path class="st0" d="M433.8,522.9c0,9.9-8.1,18-18,18c-5.2,0-9.9-2.2-13.2-5.8l25.4-25.4C431.6,513,433.8,517.7,433.8,522.9z"/>
	<line class="st5" x1="402.6" y1="535.1" x2="395.8" y2="541.9"/>
	<rect x="32.5" y="32.5" class="st6" width="766.4" height="445.2"/>
	<linearGradient id="SVGID_1_" gradientUnits="userSpaceOnUse" x1="415.6561" y1="34.6333" x2="415.6561" y2="0">
		<stop  offset="0" style="stop-color:#FFFFFF;stop-opacity:0.7"/>
		<stop  offset="1" style="stop-color:#FFFFFF;stop-opacity:0"/>
	</linearGradient>
	<polygon class="st7" points="828.9,0 2.5,0 32.5,34.6 798.9,34.6 	"/>
	
		<linearGradient id="SVGID_2_" gradientUnits="userSpaceOnUse" x1="-275.5133" y1="448.074" x2="-275.5133" y2="413.4407" gradientTransform="matrix(6.123234e-17 -1 1 6.123234e-17 -413.4407 -20.3899)">
		<stop  offset="0" style="stop-color:#FFFFFF;stop-opacity:0.7"/>
		<stop  offset="1" style="stop-color:#FFFFFF;stop-opacity:0"/>
	</linearGradient>
	<polygon class="st8" points="0,24 0,486.2 34.6,469.5 34.6,40.8 	"/>
	
		<linearGradient id="SVGID_3_" gradientUnits="userSpaceOnUse" x1="-275.5133" y1="1242.2969" x2="-275.5133" y2="1207.6636" gradientTransform="matrix(4.489653e-11 -1 -1 -4.489653e-11 2036.5198 -20.3899)">
		<stop  offset="0" style="stop-color:#FFFFFF;stop-opacity:0.7"/>
		<stop  offset="1" style="stop-color:#FFFFFF;stop-opacity:0"/>
	</linearGradient>
	<polygon class="st9" points="828.9,24 828.9,486.2 794.2,469.5 794.2,40.8 	"/>
	
		<linearGradient id="SVGID_4_" gradientUnits="userSpaceOnUse" x1="410.0562" y1="260.2904" x2="410.0562" y2="225.6571" gradientTransform="matrix(-1 0 0 -1 825.7123 735.3805)">
		<stop  offset="0" style="stop-color:#FFFFFF;stop-opacity:0.7"/>
		<stop  offset="1" style="stop-color:#FFFFFF;stop-opacity:0"/>
	</linearGradient>
	<polygon class="st10" points="2.5,509.7 828.9,509.7 798.9,475.1 32.5,475.1 	"/>
</g>
<g>
	<path d="M324.7,163.5V78h25.6v85.4c0,28.5-14.2,42.7-42.7,42.7h-8.5c-28.5,0-42.7-14.2-42.7-42.7H282c0,11.4,5.7,17.1,17.1,17.1
		h8.5C319,180.6,324.7,174.9,324.7,163.5z"/>
	<path d="M367.4,163.5v-42.7c0-28.5,14.2-42.7,42.7-42.7h8.5c28.5,0,42.7,14.2,42.7,42.7v42.7c0,28.5-14.2,42.7-42.7,42.7h-8.5
		C381.7,206.2,367.4,191.9,367.4,163.5z M393.1,120.8v42.7c0,11.4,5.7,17.1,17.1,17.1h8.5c11.4,0,17.1-5.7,17.1-17.1v-42.7
		c0-11.4-5.7-17.1-17.1-17.1h-8.5C398.8,103.7,393.1,109.4,393.1,120.8z"/>
	<path d="M529.8,78c28.5,0,42.7,12.8,42.7,38.4c0,10.8-2.5,19.4-7.6,25.6c5.1,6.3,7.6,14.8,7.6,25.6c0,25.6-14.2,38.4-42.7,38.4
		h-51.3V78H529.8z M504.1,129.3h25.6c11.4,0,17.1-4.3,17.1-12.8c0-8.5-5.7-12.8-17.1-12.8h-25.6V129.3z M529.8,154.9h-25.6v25.6
		h25.6c11.4,0,17.1-4.3,17.1-12.8C546.8,159.2,541.1,154.9,529.8,154.9z"/>
	<path d="M145.3,416.1c-28.5,0-42.7-12.8-42.7-38.4h25.6c0,8.5,5.7,12.8,17.1,12.8h8.5c11.4,0,17.1-4.3,17.1-12.8
		c0-8.5-5.7-12.8-17.1-12.8h-8.5c-28.5,0-42.7-12.8-42.7-38.4c0-25.6,14.2-38.4,42.7-38.4h8.5c28.5,0,42.7,12.8,42.7,38.4H171
		c0-8.5-5.7-12.8-17.1-12.8h-8.5c-11.4,0-17.1,4.3-17.1,12.8s5.7,12.8,17.1,12.8h8.5c28.5,0,42.7,12.8,42.7,38.4
		s-14.2,38.4-42.7,38.4H145.3z"/>
	<path d="M299.1,288v25.6h-59.8v25.6h59.8v25.6h-59.8v25.6h59.8v25.6h-85.4V288H299.1z"/>
	<path d="M401.6,288v25.6h-59.8v25.6h59.8v25.6h-59.8v25.6h59.8v25.6h-85.4V288H401.6z"/>
	<path d="M444.3,394.9v21.3h-25.6V288h25.6v64.3L490,288h30.2l-42.5,59.8h0.4l42,68.3H490l-28.3-45.9L444.3,394.9z"/>
	<path d="M615.2,288v25.6h-59.8v25.6h59.8v25.6h-59.8v25.6h59.8v25.6h-85.4V288H615.2z"/>
	<path d="M672.1,364.9h-14.2v51.3h-25.6V288h51.3c28.5,0,42.7,12.8,42.7,38.4c0,19.7-8.4,31.8-25.3,36.4l32.8,53.3h-30.2
		L672.1,364.9z M657.9,339.2h25.6c11.4,0,17.1-4.3,17.1-12.8s-5.7-12.8-17.1-12.8h-25.6V339.2z"/>
</g>
<path d="M704.6,321.5"/>
<polyline points="78.5,312.1 78.5,263.9 126.7,263.9 "/>
<polyline points="771.1,398.3 771.1,446.5 723,446.5 "/>
</svg>
