<?xml version="1.0" encoding="utf-8"?>
<!-- Generator: Adobe Illustrator 25.0.1, SVG Export Plug-In . SVG Version: 6.00 Build 0)  -->
<svg version="1.1" id="Object" xmlns="http://www.w3.org/2000/svg" xmlns:xlink="http://www.w3.org/1999/xlink" x="0px" y="0px"
	 viewBox="0 0 804 640" style="enable-background:new 0 0 804 640;" xml:space="preserve">
<style type="text/css">
	.st0{fill:url(#SVGID_1_);}
	.st1{fill:url(#SVGID_2_);}
	.st2{fill:url(#SVGID_3_);}
	.st3{fill:url(#SVGID_4_);}
	.st4{fill:url(#SVGID_5_);}
	.st5{fill:#70A5EE;}
	.st6{fill:url(#SVGID_6_);}
	.st7{fill:url(#SVGID_7_);}
	.st8{fill:url(#SVGID_8_);}
	.st9{fill:url(#SVGID_9_);}
	.st10{fill:url(#SVGID_10_);}
	.st11{fill:url(#SVGID_11_);}
	.st12{fill:url(#SVGID_12_);}
	.st13{fill:url(#SVGID_13_);}
	.st14{fill:url(#SVGID_14_);}
	.st15{fill:url(#SVGID_15_);}
	.st16{fill:url(#SVGID_16_);}
	.st17{fill:url(#SVGID_17_);}
	.st18{fill:url(#SVGID_18_);}
	.st19{fill:url(#SVGID_19_);}
	.st20{fill:url(#SVGID_20_);}
	.st21{fill:url(#SVGID_21_);}
	.st22{fill:#BEDDFD;}
	.st23{fill:url(#SVGID_22_);}
	.st24{fill:#79ACFB;}
	.st25{fill:#6CA8F1;}
	.st26{fill:url(#SVGID_23_);}
	.st27{fill:url(#SVGID_24_);}
	.st28{fill:url(#SVGID_25_);}
	.st29{fill:url(#SVGID_26_);}
	.st30{fill:url(#SVGID_27_);}
	.st31{fill:#7CB7FC;}
	.st32{fill:url(#SVGID_28_);}
	.st33{fill:url(#SVGID_29_);}
	.st34{fill:url(#SVGID_30_);}
	.st35{fill:url(#SVGID_31_);}
	.st36{fill:#B9DBFD;}
	.st37{fill:#D0E6FD;}
	.st38{fill:#B1EBFD;}
	.st39{fill:#F4F6F6;}
	.st40{fill:#B0D6FC;}
	.st41{fill:url(#SVGID_32_);}
	.st42{fill:url(#SVGID_33_);}
	.st43{fill:url(#SVGID_34_);}
	.st44{fill:url(#SVGID_35_);}
	.st45{fill:#B1ECFD;}
	.st46{fill:url(#SVGID_36_);}
	.st47{fill:url(#SVGID_37_);}
	.st48{fill:url(#SVGID_38_);}
	.st49{fill:url(#SVGID_39_);}
	.st50{fill:url(#SVGID_40_);}
	.st51{fill:url(#SVGID_41_);}
	.st52{fill:url(#SVGID_42_);}
	.st53{fill:url(#SVGID_43_);}
	.st54{fill:#ADD3FC;}
	.st55{fill:#7F503D;}
	.st56{fill:#402A22;}
	.st57{fill:#6D4636;}
	.st58{fill:#2E3048;}
	.st59{fill:#404369;}
	.st60{fill:#B8ADA8;}
	.st61{fill:#C8BCB4;}
	.st62{fill:#1D1E2A;}
	.st63{fill:#E6D8D1;}
	.st64{fill:#472F25;}
	.st65{fill:#292A3F;}
	.st66{fill:#64482F;}
	.st67{fill:#C38855;}
	.st68{fill:#A37247;}
	.st69{fill:#756F6B;}
	.st70{fill:#D4D4D4;}
	.st71{fill:#E6E6E6;}
	.st72{fill:#C0C0C0;}
	.st73{fill:url(#SVGID_44_);}
	.st74{fill:url(#SVGID_45_);}
	.st75{fill:url(#SVGID_46_);}
	.st76{fill:url(#SVGID_47_);}
	.st77{fill:#5A554E;}
	.st78{fill:#404347;}
	.st79{fill:#373A3D;}
	.st80{fill:#DBA585;}
	.st81{fill:#EECAA2;}
	.st82{fill:#DCD0C8;}
	.st83{fill:#4C5155;}
	.st84{fill:#B68264;}
	.st85{fill:#CC9B7E;}
	.st86{fill:#C9997C;}
	.st87{fill:#CB9474;}
	.st88{fill:#2C3D54;}
	.st89{fill:#393939;}
	.st90{fill:#997761;}
	.st91{fill:#BD8A6D;}
	.st92{fill:#C99A7D;}
	.st93{fill:#1A232F;}
	.st94{fill:#4B4B4B;}
	.st95{fill:#3A5271;}
	.st96{fill:#2C323D;}
	.st97{fill:#CFC3BC;}
	.st98{fill:#F3E4DC;}
	.st99{fill:#2B2C30;}
	.st100{fill:#303135;}
	.st101{fill:#4C4E54;}
	.st102{fill:#FCFCFC;}
	.st103{fill:#9295A0;}
	.st104{fill:none;}
</style>
<g>
	<linearGradient id="SVGID_1_" gradientUnits="userSpaceOnUse" x1="1272.3621" y1="114.3055" x2="1338.0118" y2="-261.5715">
		<stop  offset="0" style="stop-color:#F3F9FF"/>
		<stop  offset="1" style="stop-color:#7AB3FB"/>
	</linearGradient>
	<rect x="856.6" y="20" class="st0" width="783.4" height="463.9"/>
	<g>
		<linearGradient id="SVGID_2_" gradientUnits="userSpaceOnUse" x1="1149.6703" y1="53.8237" x2="987.0405" y2="215.7042">
			<stop  offset="0" style="stop-color:#FFFFFF"/>
			<stop  offset="1" style="stop-color:#7AB3FB"/>
		</linearGradient>
		<path class="st1" d="M1123.8,86.5c-2,0-3.9,0.3-5.6,0.8c-2.3-5.6-8-9.5-14.6-9.5c-7.4,0-13.6,4.9-15.3,11.4
			c-1.3-0.5-2.7-0.8-4.1-0.8c-6.2,0-11.2,4.7-11.2,10.6h16.3h6h12.8h9.7h21.7C1139.6,92.2,1132.5,86.5,1123.8,86.5z"/>
	</g>
	<g>
		<linearGradient id="SVGID_3_" gradientUnits="userSpaceOnUse" x1="1242.0186" y1="244.7464" x2="1365.386" y2="170.7258">
			<stop  offset="0" style="stop-color:#FFFFFF"/>
			<stop  offset="1" style="stop-color:#7AB3FB"/>
		</linearGradient>
		<path class="st2" d="M1299.4,211.4c-2.4,0-4.7,0.4-6.8,1c-2.8-6.7-9.7-11.5-17.7-11.5c-9,0-16.5,5.9-18.5,13.8
			c-1.5-0.6-3.2-0.9-5-0.9c-7.5,0-13.5,5.7-13.5,12.8h19.8h7.3h15.5h11.8h26.3C1318.4,218.2,1309.9,211.4,1299.4,211.4z"/>
	</g>
	<g>
		<linearGradient id="SVGID_4_" gradientUnits="userSpaceOnUse" x1="1515.1462" y1="104.5691" x2="1672.7484" y2="13.1783">
			<stop  offset="0" style="stop-color:#FFFFFF"/>
			<stop  offset="1" style="stop-color:#7AB3FB"/>
		</linearGradient>
		<path class="st3" d="M1536.7,92.8c-2.1,0-4.1,0.3-5.9,0.9c-2.4-5.8-8.4-10-15.4-10c-7.8,0-14.3,5.1-16.1,12
			c-1.3-0.5-2.8-0.8-4.3-0.8c-6.5,0-11.7,5-11.7,11.1h17.2h6.3h13.4h10.2h22.8C1553.2,98.7,1545.8,92.8,1536.7,92.8z"/>
	</g>
	<g>
		<linearGradient id="SVGID_5_" gradientUnits="userSpaceOnUse" x1="1453.2546" y1="220.5493" x2="1479.1144" y2="199.4245">
			<stop  offset="0" style="stop-color:#F8E7D8"/>
			<stop  offset="1" style="stop-color:#A7A39D"/>
		</linearGradient>
		<rect x="1464.8" y="178.5" class="st4" width="0.9" height="64.6"/>
		<path class="st5" d="M1465.6,178.5c0,0-6.3-7.7-17.3-1.5c-11,6.3-17.2,10.9-30,4.5c0,0,7.6,25.9,23.6,17.7
			c15.9-8.2,23.7,2.3,23.7,2.3V178.5z"/>
	</g>
	<g>
		<linearGradient id="SVGID_6_" gradientUnits="userSpaceOnUse" x1="1302.2893" y1="498.7844" x2="1302.2893" y2="420.0312">
			<stop  offset="0" style="stop-color:#FFFFFF"/>
			<stop  offset="1" style="stop-color:#7CB7FC"/>
		</linearGradient>
		<polygon class="st6" points="1324.8,467.2 1324.8,482.9 1279.8,482.9 1279.8,474.7 1283,474.7 1283,448.2 1291.3,448.2 
			1291.3,454 1293.2,454 1293.2,461.7 1296.2,461.7 1296.2,472.8 1297.2,472.8 1297.2,467.1 1300.1,467.1 1300.1,464.1 
			1304.9,464.1 1304.9,454.5 1313.1,454.5 1313.1,473 1314,473 1314,466.8 1319.8,466.8 1319.8,467.2 		"/>
		<linearGradient id="SVGID_7_" gradientUnits="userSpaceOnUse" x1="1339.7998" y1="498.8194" x2="1339.7998" y2="419.8924">
			<stop  offset="0" style="stop-color:#FFFFFF"/>
			<stop  offset="1" style="stop-color:#7CB7FC"/>
		</linearGradient>
		<polygon class="st7" points="1365.5,464.8 1365.5,482.9 1314.1,482.9 1314.1,473.5 1317.8,473.5 1317.8,443.2 1327.2,443.2 
			1327.2,449.8 1329.4,449.8 1329.4,458.7 1332.9,458.7 1332.9,471.3 1333.9,471.3 1333.9,464.7 1337.4,464.7 1337.4,461.4 
			1342.8,461.4 1342.8,450.4 1352.2,450.4 1352.2,471.5 1353.1,471.5 1353.1,464.5 1359.8,464.5 1359.8,464.8 		"/>
		<linearGradient id="SVGID_8_" gradientUnits="userSpaceOnUse" x1="1408.2714" y1="498.7357" x2="1408.2714" y2="420.2242">
			<stop  offset="0" style="stop-color:#FFFFFF"/>
			<stop  offset="1" style="stop-color:#7CB7FC"/>
		</linearGradient>
		<polygon class="st8" points="1427.5,469.5 1427.5,482.9 1389,482.9 1389,476 1391.8,476 1391.8,453.3 1398.8,453.3 1398.8,458.3 
			1400.5,458.3 1400.5,464.9 1403.1,464.9 1403.1,474.4 1403.9,474.4 1403.9,469.5 1406.4,469.5 1406.4,466.9 1410.5,466.9 
			1410.5,458.7 1417.6,458.7 1417.6,474.5 1418.3,474.5 1418.3,469.3 1423.3,469.3 1423.3,469.5 		"/>
		<linearGradient id="SVGID_9_" gradientUnits="userSpaceOnUse" x1="1423.6617" y1="498.5921" x2="1423.6617" y2="420.7942">
			<stop  offset="0" style="stop-color:#FFFFFF"/>
			<stop  offset="1" style="stop-color:#7CB7FC"/>
		</linearGradient>
		<polygon class="st9" points="1437.2,473.7 1437.2,482.9 1410.1,482.9 1410.1,478.3 1412,478.3 1412,462.3 1417,462.3 1417,465.8 
			1418.2,465.8 1418.2,470.4 1420,470.4 1420,477.1 1420.6,477.1 1420.6,473.6 1422.4,473.6 1422.4,471.9 1425.3,471.9 
			1425.3,466.1 1430.2,466.1 1430.2,477.2 1430.7,477.2 1430.7,473.5 1434.2,473.5 1434.2,473.7 		"/>
		<linearGradient id="SVGID_10_" gradientUnits="userSpaceOnUse" x1="1443.5613" y1="498.5921" x2="1443.5613" y2="420.7942">
			<stop  offset="0" style="stop-color:#FFFFFF"/>
			<stop  offset="1" style="stop-color:#7CB7FC"/>
		</linearGradient>
		<polygon class="st10" points="1457.1,473.7 1457.1,482.9 1430,482.9 1430,478.3 1431.9,478.3 1431.9,462.3 1436.9,462.3 
			1436.9,465.8 1438.1,465.8 1438.1,470.4 1439.9,470.4 1439.9,477.1 1440.5,477.1 1440.5,473.6 1442.3,473.6 1442.3,471.9 
			1445.2,471.9 1445.2,466.1 1450.1,466.1 1450.1,477.2 1450.6,477.2 1450.6,473.5 1454.1,473.5 1454.1,473.7 		"/>
		<linearGradient id="SVGID_11_" gradientUnits="userSpaceOnUse" x1="1458.6263" y1="489.1958" x2="1458.6263" y2="425.0913">
			<stop  offset="0" style="stop-color:#FFFFFF"/>
			<stop  offset="1" style="stop-color:#7CB7FC"/>
		</linearGradient>
		<polygon class="st11" points="1478.2,455.2 1478.2,482.9 1439.1,482.9 1439.1,480.7 1443.1,480.7 1443.1,447.3 1453.5,447.3 
			1453.5,454.6 1456,454.6 1456,464.4 1459.8,464.4 1459.8,478.3 1460.9,478.3 1460.9,471.1 1464.7,471.1 1464.7,467.4 
			1470.7,467.4 1470.7,455.2 		"/>
		<linearGradient id="SVGID_12_" gradientUnits="userSpaceOnUse" x1="1368.5005" y1="498.4341" x2="1368.5005" y2="421.4214">
			<stop  offset="0" style="stop-color:#FFFFFF"/>
			<stop  offset="1" style="stop-color:#7CB7FC"/>
		</linearGradient>
		<polygon class="st12" points="1378.7,476.1 1378.7,482.9 1358.3,482.9 1358.3,479.6 1359.7,479.6 1359.7,467.5 1363.5,467.5 
			1363.5,470.1 1364.4,470.1 1364.4,473.6 1365.7,473.6 1365.7,478.7 1366.2,478.7 1366.2,476.1 1367.5,476.1 1367.5,474.7 
			1369.7,474.7 1369.7,470.3 1373.4,470.3 1373.4,478.8 1373.8,478.8 1373.8,476 1376.5,476 1376.5,476.1 		"/>
		<linearGradient id="SVGID_13_" gradientUnits="userSpaceOnUse" x1="1394.4791" y1="498.7085" x2="1394.4791" y2="420.3323">
			<stop  offset="0" style="stop-color:#FFFFFF"/>
			<stop  offset="1" style="stop-color:#7CB7FC"/>
		</linearGradient>
		<polygon class="st13" points="1412.3,476.6 1412.3,482.9 1376.7,482.9 1376.7,470.6 1380.6,470.6 1380.6,470.3 1385.2,470.3 
			1385.2,475.2 1385.9,475.2 1385.9,460.6 1392.4,460.6 1392.4,468.2 1396.2,468.2 1396.2,470.5 1398.5,470.5 1398.5,475.1 
			1399.3,475.1 1399.3,466.3 1401.7,466.3 1401.7,460.2 1403.2,460.2 1403.2,455.6 1409.7,455.6 1409.7,476.6 		"/>
	</g>
	<g>
		<linearGradient id="SVGID_14_" gradientUnits="userSpaceOnUse" x1="1494.2893" y1="500.7844" x2="1494.2893" y2="422.0312">
			<stop  offset="0" style="stop-color:#FFFFFF"/>
			<stop  offset="1" style="stop-color:#7CB7FC"/>
		</linearGradient>
		<polygon class="st14" points="1516.8,469.2 1516.8,484.9 1471.8,484.9 1471.8,476.7 1475,476.7 1475,450.2 1483.3,450.2 
			1483.3,456 1485.2,456 1485.2,463.7 1488.2,463.7 1488.2,474.8 1489.2,474.8 1489.2,469.1 1492.1,469.1 1492.1,466.1 
			1496.9,466.1 1496.9,456.5 1505.1,456.5 1505.1,475 1506,475 1506,468.8 1511.8,468.8 1511.8,469.2 		"/>
		<linearGradient id="SVGID_15_" gradientUnits="userSpaceOnUse" x1="1531.7998" y1="500.8194" x2="1531.7998" y2="421.8924">
			<stop  offset="0" style="stop-color:#FFFFFF"/>
			<stop  offset="1" style="stop-color:#7CB7FC"/>
		</linearGradient>
		<polygon class="st15" points="1557.5,466.8 1557.5,484.9 1506.1,484.9 1506.1,475.5 1509.8,475.5 1509.8,445.2 1519.2,445.2 
			1519.2,451.8 1521.4,451.8 1521.4,460.7 1524.9,460.7 1524.9,473.3 1525.9,473.3 1525.9,466.7 1529.4,466.7 1529.4,463.4 
			1534.8,463.4 1534.8,452.4 1544.2,452.4 1544.2,473.5 1545.1,473.5 1545.1,466.5 1551.8,466.5 1551.8,466.8 		"/>
		<linearGradient id="SVGID_16_" gradientUnits="userSpaceOnUse" x1="1600.2714" y1="500.7357" x2="1600.2714" y2="422.2242">
			<stop  offset="0" style="stop-color:#FFFFFF"/>
			<stop  offset="1" style="stop-color:#7CB7FC"/>
		</linearGradient>
		<polygon class="st16" points="1619.5,471.5 1619.5,484.9 1581,484.9 1581,478 1583.8,478 1583.8,455.3 1590.8,455.3 1590.8,460.3 
			1592.5,460.3 1592.5,466.9 1595.1,466.9 1595.1,476.4 1595.9,476.4 1595.9,471.5 1598.4,471.5 1598.4,468.9 1602.5,468.9 
			1602.5,460.7 1609.6,460.7 1609.6,476.5 1610.3,476.5 1610.3,471.3 1615.3,471.3 1615.3,471.5 		"/>
		<linearGradient id="SVGID_17_" gradientUnits="userSpaceOnUse" x1="1615.6617" y1="500.5921" x2="1615.6617" y2="422.7942">
			<stop  offset="0" style="stop-color:#FFFFFF"/>
			<stop  offset="1" style="stop-color:#7CB7FC"/>
		</linearGradient>
		<polygon class="st17" points="1629.2,475.7 1629.2,484.9 1602.1,484.9 1602.1,480.3 1604,480.3 1604,464.3 1609,464.3 1609,467.8 
			1610.2,467.8 1610.2,472.4 1612,472.4 1612,479.1 1612.6,479.1 1612.6,475.6 1614.4,475.6 1614.4,473.9 1617.3,473.9 
			1617.3,468.1 1622.2,468.1 1622.2,479.2 1622.7,479.2 1622.7,475.5 1626.2,475.5 1626.2,475.7 		"/>
		<linearGradient id="SVGID_18_" gradientUnits="userSpaceOnUse" x1="1635.5613" y1="500.5921" x2="1635.5613" y2="422.7942">
			<stop  offset="0" style="stop-color:#FFFFFF"/>
			<stop  offset="1" style="stop-color:#7CB7FC"/>
		</linearGradient>
		<polygon class="st18" points="1649.1,475.7 1649.1,484.9 1622,484.9 1622,480.3 1623.9,480.3 1623.9,464.3 1628.9,464.3 
			1628.9,467.8 1630.1,467.8 1630.1,472.4 1631.9,472.4 1631.9,479.1 1632.5,479.1 1632.5,475.6 1634.3,475.6 1634.3,473.9 
			1637.2,473.9 1637.2,468.1 1642.1,468.1 1642.1,479.2 1642.6,479.2 1642.6,475.5 1646.1,475.5 1646.1,475.7 		"/>
		<linearGradient id="SVGID_19_" gradientUnits="userSpaceOnUse" x1="1650.6263" y1="491.1958" x2="1650.6263" y2="427.0913">
			<stop  offset="0" style="stop-color:#FFFFFF"/>
			<stop  offset="1" style="stop-color:#7CB7FC"/>
		</linearGradient>
		<polygon class="st19" points="1670.2,457.2 1670.2,484.9 1631.1,484.9 1631.1,482.7 1635.1,482.7 1635.1,449.3 1645.5,449.3 
			1645.5,456.6 1648,456.6 1648,466.4 1651.8,466.4 1651.8,480.3 1652.9,480.3 1652.9,473.1 1656.7,473.1 1656.7,469.4 
			1662.7,469.4 1662.7,457.2 		"/>
		<linearGradient id="SVGID_20_" gradientUnits="userSpaceOnUse" x1="1560.5005" y1="500.4341" x2="1560.5005" y2="423.4214">
			<stop  offset="0" style="stop-color:#FFFFFF"/>
			<stop  offset="1" style="stop-color:#7CB7FC"/>
		</linearGradient>
		<polygon class="st20" points="1570.7,478.1 1570.7,484.9 1550.3,484.9 1550.3,481.6 1551.7,481.6 1551.7,469.5 1555.5,469.5 
			1555.5,472.1 1556.4,472.1 1556.4,475.6 1557.7,475.6 1557.7,480.7 1558.2,480.7 1558.2,478.1 1559.5,478.1 1559.5,476.7 
			1561.7,476.7 1561.7,472.3 1565.4,472.3 1565.4,480.8 1565.8,480.8 1565.8,478 1568.5,478 1568.5,478.1 		"/>
		<linearGradient id="SVGID_21_" gradientUnits="userSpaceOnUse" x1="1586.4791" y1="500.7085" x2="1586.4791" y2="422.3323">
			<stop  offset="0" style="stop-color:#FFFFFF"/>
			<stop  offset="1" style="stop-color:#7CB7FC"/>
		</linearGradient>
		<polygon class="st21" points="1604.3,478.6 1604.3,484.9 1568.7,484.9 1568.7,472.6 1572.6,472.6 1572.6,472.3 1577.2,472.3 
			1577.2,477.2 1577.9,477.2 1577.9,462.6 1584.4,462.6 1584.4,470.2 1588.2,470.2 1588.2,472.5 1590.5,472.5 1590.5,477.1 
			1591.3,477.1 1591.3,468.3 1593.7,468.3 1593.7,462.2 1595.2,462.2 1595.2,457.6 1601.7,457.6 1601.7,478.6 		"/>
	</g>
	<rect x="1201.5" y="459.6" class="st22" width="79.6" height="24.3"/>
	<linearGradient id="SVGID_22_" gradientUnits="userSpaceOnUse" x1="1190.4021" y1="331.9913" x2="1190.4021" y2="476.7396">
		<stop  offset="0" style="stop-color:#FFFFFF"/>
		<stop  offset="1" style="stop-color:#7CB7FC"/>
	</linearGradient>
	<rect x="1166" y="349.7" class="st23" width="48.8" height="134.3"/>
	<rect x="1137.6" y="410.8" class="st24" width="52.8" height="73.2"/>
	<rect x="1116.2" y="428.3" class="st25" width="42.6" height="55.7"/>
	<linearGradient id="SVGID_23_" gradientUnits="userSpaceOnUse" x1="1131.4104" y1="415.2361" x2="1131.4104" y2="469.6909">
		<stop  offset="0" style="stop-color:#FFFFFF"/>
		<stop  offset="1" style="stop-color:#7CB7FC"/>
	</linearGradient>
	<rect x="1112" y="431.8" class="st26" width="38.9" height="52.2"/>
	<rect x="1088.3" y="390.4" class="st25" width="26.1" height="93.5"/>
	<linearGradient id="SVGID_24_" gradientUnits="userSpaceOnUse" x1="1084.7373" y1="337.9378" x2="1084.7373" y2="458.2255">
		<stop  offset="0" style="stop-color:#FFFFFF"/>
		<stop  offset="1" style="stop-color:#7CB7FC"/>
	</linearGradient>
	<rect x="1073.1" y="346.8" class="st27" width="23.2" height="137.1"/>
	<linearGradient id="SVGID_25_" gradientUnits="userSpaceOnUse" x1="1060.2202" y1="294.5221" x2="1060.2202" y2="505.2414">
		<stop  offset="0" style="stop-color:#FFFFFF"/>
		<stop  offset="1" style="stop-color:#7CB7FC"/>
	</linearGradient>
	<rect x="1035.7" y="309.9" class="st28" width="49" height="174.1"/>
	<linearGradient id="SVGID_26_" gradientUnits="userSpaceOnUse" x1="1032.5513" y1="441.2971" x2="1032.5513" y2="478.4967">
		<stop  offset="0" style="stop-color:#FFFFFF"/>
		<stop  offset="1" style="stop-color:#7CB7FC"/>
	</linearGradient>
	<rect x="1016.6" y="466.2" class="st29" width="31.9" height="17.8"/>
	<linearGradient id="SVGID_27_" gradientUnits="userSpaceOnUse" x1="1026.5444" y1="412.047" x2="1026.5444" y2="472.01">
		<stop  offset="0" style="stop-color:#FFFFFF"/>
		<stop  offset="1" style="stop-color:#7CB7FC"/>
	</linearGradient>
	<polygon class="st30" points="1032.6,445.2 1032.6,483.9 1020.5,483.9 1020.5,445.2 1024.3,445.2 1024.3,435.4 1031.2,435.4 
		1031.2,445.2 	"/>
	<rect x="992.6" y="454.8" class="st31" width="24" height="29.1"/>
	<rect x="974.9" y="462.7" class="st31" width="24.6" height="21.2"/>
	<linearGradient id="SVGID_28_" gradientUnits="userSpaceOnUse" x1="958.6068" y1="192.7774" x2="958.6068" y2="497.6816">
		<stop  offset="0" style="stop-color:#FFFFFF"/>
		<stop  offset="1" style="stop-color:#7CB7FC"/>
	</linearGradient>
	<polygon class="st32" points="992.2,483.9 925,483.9 925,454.8 925.2,445.2 926.3,390.4 930,199.3 943.9,186.1 981.8,192.4 
		991.5,462.7 	"/>
	<linearGradient id="SVGID_29_" gradientUnits="userSpaceOnUse" x1="889.7697" y1="464.5735" x2="929.0947" y2="464.5735">
		<stop  offset="0" style="stop-color:#FFFFFF"/>
		<stop  offset="1" style="stop-color:#7CB7FC"/>
	</linearGradient>
	<rect x="889.8" y="445.2" class="st33" width="39.3" height="38.7"/>
	<polygon class="st25" points="903.5,315.5 903.5,483.9 868.4,483.9 868.4,316.5 896.4,312.2 	"/>
	<linearGradient id="SVGID_30_" gradientUnits="userSpaceOnUse" x1="1237.0671" y1="408.8587" x2="1237.0671" y2="488.486">
		<stop  offset="0" style="stop-color:#FFFFFF"/>
		<stop  offset="1" style="stop-color:#7CB7FC"/>
	</linearGradient>
	<rect x="1219.8" y="420.7" class="st34" width="34.6" height="63.2"/>
	<linearGradient id="SVGID_31_" gradientUnits="userSpaceOnUse" x1="1268.5786" y1="393.9782" x2="1268.5786" y2="468.7029">
		<stop  offset="0" style="stop-color:#FFFFFF"/>
		<stop  offset="1" style="stop-color:#7CB7FC"/>
	</linearGradient>
	<polygon class="st35" points="1284,430.6 1284,483.9 1253.2,483.9 1253.2,430.6 1260.5,430.6 1260.5,423.5 1265.3,423.5 
		1265.3,413.6 1270.5,413.6 1270.5,423.5 1275,423.5 1275,430.6 	"/>
	<g>
		<rect x="1541.7" y="312.6" class="st36" width="37" height="1.6"/>
		<rect x="1541.7" y="319.5" class="st36" width="37" height="1.6"/>
		<rect x="1541.7" y="326.4" class="st36" width="37" height="1.6"/>
		<rect x="1541.7" y="333.4" class="st36" width="37" height="1.6"/>
		<rect x="1541.7" y="340.3" class="st36" width="37" height="1.6"/>
		<rect x="1541.7" y="347.2" class="st36" width="37" height="1.6"/>
		<rect x="1541.7" y="354.1" class="st36" width="37" height="1.6"/>
		<rect x="1541.7" y="361.1" class="st36" width="37" height="1.6"/>
	</g>
	<g>
		<rect x="1257.7" y="466.1" class="st37" width="29" height="1.1"/>
		<rect x="1257.7" y="470.8" class="st37" width="29" height="1.1"/>
		<rect x="1257.7" y="475.6" class="st37" width="29" height="1.1"/>
		<rect x="1257.7" y="480.3" class="st37" width="29" height="1.1"/>
	</g>
	<g>
		<g>
			<rect x="1223.3" y="425.4" class="st22" width="3.9" height="3.9"/>
			<rect x="1228.7" y="425.4" class="st22" width="3.9" height="3.9"/>
			<rect x="1234.1" y="425.4" class="st22" width="3.9" height="3.9"/>
			<rect x="1239.5" y="425.4" class="st22" width="3.9" height="3.9"/>
			<rect x="1244.8" y="425.4" class="st22" width="3.9" height="3.9"/>
		</g>
		<g>
			<rect x="1223.3" y="431.6" class="st22" width="3.9" height="3.9"/>
			<rect x="1228.7" y="431.6" class="st22" width="3.9" height="3.9"/>
			<rect x="1234.1" y="431.6" class="st22" width="3.9" height="3.9"/>
			<rect x="1239.5" y="431.6" class="st22" width="3.9" height="3.9"/>
			<rect x="1244.8" y="431.6" class="st22" width="3.9" height="3.9"/>
		</g>
		<g>
			<rect x="1223.3" y="437.7" class="st22" width="3.9" height="3.9"/>
			<rect x="1228.7" y="437.7" class="st22" width="3.9" height="3.9"/>
			<rect x="1234.1" y="437.7" class="st22" width="3.9" height="3.9"/>
			<rect x="1239.5" y="437.7" class="st22" width="3.9" height="3.9"/>
			<rect x="1244.8" y="437.7" class="st22" width="3.9" height="3.9"/>
		</g>
		<g>
			<rect x="1223.3" y="443.9" class="st22" width="3.9" height="3.9"/>
			<rect x="1228.7" y="443.9" class="st22" width="3.9" height="3.9"/>
			<rect x="1234.1" y="443.9" class="st22" width="3.9" height="3.9"/>
			<rect x="1239.5" y="443.9" class="st22" width="3.9" height="3.9"/>
			<rect x="1244.8" y="443.9" class="st22" width="3.9" height="3.9"/>
		</g>
		<g>
			<rect x="1223.3" y="450" class="st22" width="3.9" height="3.9"/>
			<rect x="1228.7" y="450" class="st22" width="3.9" height="3.9"/>
			<rect x="1234.1" y="450" class="st22" width="3.9" height="3.9"/>
			<rect x="1239.5" y="450" class="st22" width="3.9" height="3.9"/>
			<rect x="1244.8" y="450" class="st22" width="3.9" height="3.9"/>
		</g>
	</g>
	<rect x="1253.4" y="380.3" class="st38" width="4.7" height="2"/>
	<rect x="1253.4" y="383.3" class="st38" width="2.4" height="2.4"/>
	<rect x="1230.6" y="378.7" class="st38" width="2.5" height="2.5"/>
	<rect x="1229.2" y="386.8" class="st38" width="2.4" height="2.4"/>
	<rect x="1243.1" y="387.9" class="st38" width="2.4" height="2.4"/>
	<rect x="1146.3" y="439.3" class="st38" width="2.5" height="2.5"/>
	<rect x="1146.3" y="444.1" class="st38" width="2.5" height="2.5"/>
	<rect x="1123.2" y="466.9" class="st39" width="2.9" height="2.9"/>
	<rect x="1127.6" y="466.9" class="st39" width="2.9" height="2.9"/>
	<rect x="1127.6" y="472.6" class="st39" width="2.9" height="2.9"/>
	<rect x="1123.2" y="478.3" class="st39" width="2.9" height="2.9"/>
	<rect x="1127.6" y="478.3" class="st39" width="2.9" height="2.9"/>
	<rect x="1097.5" y="473.9" class="st39" width="2.9" height="2.9"/>
	<rect x="1101.9" y="473.9" class="st39" width="2.9" height="2.9"/>
	<rect x="1106.4" y="473.9" class="st39" width="2.9" height="2.9"/>
	<rect x="1110.8" y="473.9" class="st39" width="2.9" height="2.9"/>
	<rect x="1106.4" y="479.6" class="st39" width="2.9" height="2.9"/>
	<rect x="1101.9" y="479.6" class="st39" width="2.9" height="2.9"/>
	<rect x="1170.3" y="354.4" class="st25" width="26.1" height="2.8"/>
	<rect x="1088.3" y="428.9" class="st40" width="26.1" height="2.8"/>
	<rect x="1090" y="454.8" class="st25" width="26.2" height="29.1"/>
	<rect x="1123.7" y="330" class="st38" width="12.3" height="2.8"/>
	<rect x="1138.1" y="335.6" class="st38" width="12.3" height="2.8"/>
	<linearGradient id="SVGID_32_" gradientUnits="userSpaceOnUse" x1="1129.8632" y1="328.6788" x2="1129.8632" y2="352.0878">
		<stop  offset="0" style="stop-color:#FFFFFF"/>
		<stop  offset="1" style="stop-color:#7CB7FC"/>
	</linearGradient>
	<rect x="1123.7" y="346.8" class="st41" width="12.3" height="2.8"/>
	<linearGradient id="SVGID_33_" gradientUnits="userSpaceOnUse" x1="1144.2458" y1="328.6788" x2="1144.2458" y2="352.0878">
		<stop  offset="0" style="stop-color:#FFFFFF"/>
		<stop  offset="1" style="stop-color:#7CB7FC"/>
	</linearGradient>
	<rect x="1138.1" y="346.8" class="st42" width="12.3" height="2.8"/>
	<linearGradient id="SVGID_34_" gradientUnits="userSpaceOnUse" x1="1137.8389" y1="278.9529" x2="1137.8389" y2="317.5524">
		<stop  offset="0" style="stop-color:#FFFFFF"/>
		<stop  offset="1" style="stop-color:#7CB7FC"/>
	</linearGradient>
	<rect x="1117.7" y="297.3" class="st43" width="40.3" height="2.6"/>
	<linearGradient id="SVGID_35_" gradientUnits="userSpaceOnUse" x1="934.4666" y1="176.3468" x2="934.4666" y2="394.5139">
		<stop  offset="0" style="stop-color:#FFFFFF"/>
		<stop  offset="1" style="stop-color:#7CB7FC"/>
	</linearGradient>
	<polygon class="st44" points="943.9,186.1 925,468.3 930,199.3 	"/>
	<polygon class="st45" points="1037.5,160.8 1031.2,159.5 1030.7,157.4 1037,158.7 	"/>
	<polygon class="st45" points="1046.3,167.4 1039.9,166.1 1039.4,164 1045.8,165.4 	"/>
	<polygon class="st45" points="1056.5,165.7 1050.1,164.4 1049.6,162.3 1056,163.7 	"/>
	<polygon class="st45" points="1040.3,193.3 1033.9,192 1033.5,189.9 1039.8,191.3 	"/>
	<polygon class="st45" points="1041.5,198.6 1035.2,197.3 1034.7,195.2 1041.1,196.5 	"/>
	<polygon class="st45" points="1042.9,203.9 1036.6,202.5 1036.1,200.5 1042.4,201.8 	"/>
	<rect x="1050.1" y="217.3" class="st45" width="2.8" height="2.8"/>
	<rect x="1049.4" y="223.5" class="st45" width="2.8" height="2.8"/>
	<rect x="1043.5" y="235.1" class="st45" width="2.8" height="2.8"/>
	<rect x="1044" y="241.6" class="st45" width="2.8" height="2.8"/>
	<rect x="1029.9" y="258.2" class="st45" width="2.8" height="2.8"/>
	<rect x="1029.4" y="269.4" class="st45" width="2.8" height="2.8"/>
	<rect x="1033.5" y="293.1" class="st45" width="2.8" height="2.8"/>
	<rect x="1024.1" y="297.6" class="st45" width="2.8" height="2.8"/>
	<rect x="916.1" y="390.4" class="st25" width="41.7" height="93.5"/>
	<rect x="947.1" y="456.9" class="st31" width="34.7" height="27"/>
	<linearGradient id="SVGID_36_" gradientUnits="userSpaceOnUse" x1="1533.5126" y1="275.3308" x2="1533.5126" y2="374.7544">
		<stop  offset="0" style="stop-color:#FFFFFF"/>
		<stop  offset="1" style="stop-color:#7CB7FC"/>
	</linearGradient>
	<rect x="1527" y="305.6" class="st46" width="13" height="61.1"/>
	<polygon class="st25" points="903.5,395.6 903.5,467.4 868.4,460.5 868.4,395.6 	"/>
	<linearGradient id="SVGID_37_" gradientUnits="userSpaceOnUse" x1="882.4259" y1="260.4459" x2="882.4259" y2="419.5352">
		<stop  offset="0" style="stop-color:#FFFFFF"/>
		<stop  offset="1" style="stop-color:#6CA8F1"/>
	</linearGradient>
	<polygon class="st47" points="896.4,312.2 896.4,466.2 868.4,420.4 868.4,316.5 	"/>
	<g>
		
			<linearGradient id="SVGID_38_" gradientUnits="userSpaceOnUse" x1="1382.7621" y1="-19.015" x2="1383.5846" y2="-110.31" gradientTransform="matrix(0.9907 0.1358 -0.1358 0.9907 -249.4425 215.7196)">
			<stop  offset="0" style="stop-color:#F8E7D8"/>
			<stop  offset="1" style="stop-color:#A7A39D"/>
		</linearGradient>
		<polygon class="st48" points="1259.6,292.6 1008.3,327.1 1024.1,260.4 		"/>
		
			<linearGradient id="SVGID_39_" gradientUnits="userSpaceOnUse" x1="1211.9404" y1="-106.1377" x2="1505.5927" y2="-106.1377" gradientTransform="matrix(0.9907 0.1358 -0.1358 0.9907 -249.4425 215.7196)">
			<stop  offset="0" style="stop-color:#F8E7D8"/>
			<stop  offset="1" style="stop-color:#C3BFB7"/>
		</linearGradient>
		<polygon class="st49" points="1024.1,260.4 1259.6,292.6 962.6,297.5 		"/>
	</g>
	<g>
		
			<linearGradient id="SVGID_40_" gradientUnits="userSpaceOnUse" x1="1453.1875" y1="-180.8703" x2="1453.6472" y2="-231.8902" gradientTransform="matrix(0.9907 0.1358 -0.1358 0.9907 -249.4425 215.7196)">
			<stop  offset="0" style="stop-color:#F8E7D8"/>
			<stop  offset="1" style="stop-color:#A7A39D"/>
		</linearGradient>
		<polygon class="st50" points="1291.1,182.5 1150.7,201.7 1159.5,164.4 		"/>
		
			<linearGradient id="SVGID_41_" gradientUnits="userSpaceOnUse" x1="1357.7247" y1="-229.5586" x2="1521.8308" y2="-229.5586" gradientTransform="matrix(0.9907 0.1358 -0.1358 0.9907 -249.4425 215.7196)">
			<stop  offset="0" style="stop-color:#F8E7D8"/>
			<stop  offset="1" style="stop-color:#C3BFB7"/>
		</linearGradient>
		<polygon class="st51" points="1159.5,164.4 1291.1,182.5 1125.1,185.2 		"/>
	</g>
	<g>
		
			<linearGradient id="SVGID_42_" gradientUnits="userSpaceOnUse" x1="1637.8633" y1="-110.689" x2="1638.5856" y2="-190.8628" gradientTransform="matrix(0.9907 0.1358 -0.1358 0.9907 -249.4425 215.7196)">
			<stop  offset="0" style="stop-color:#F8E7D8"/>
			<stop  offset="1" style="stop-color:#A7A39D"/>
		</linearGradient>
		<polygon class="st52" points="1508.2,247.7 1287.5,278 1301.3,219.3 		"/>
		
			<linearGradient id="SVGID_43_" gradientUnits="userSpaceOnUse" x1="1487.8501" y1="-187.1988" x2="1745.7316" y2="-187.1988" gradientTransform="matrix(0.9907 0.1358 -0.1358 0.9907 -249.4425 215.7196)">
			<stop  offset="0" style="stop-color:#F8E7D8"/>
			<stop  offset="1" style="stop-color:#C3BFB7"/>
		</linearGradient>
		<polygon class="st53" points="1301.3,219.3 1508.2,247.7 1247.3,252 		"/>
	</g>
	<path class="st54" d="M1021.3,61H858V34.1c1.1,0.4,1.8,0.7,1.8,0.7c44.5-17.2,73.9,4.1,80.5,13C946.9,56.7,1021.3,61,1021.3,61z"/>
	<g>
		<g>
			<g>
				<path class="st55" d="M1413,148.1c0,0,1.9-1.7,2.2-2c0.3-0.3,1.4-0.4,2.7-0.2c1.2,0.2,2.9,0.2,3,0.4c0.1,0.2,0.3,0.3,0.3,0.8
					c0,0.6-0.3,1-0.3,1s0.3,0.7-0.1,1.2c0,0,0.3,0.7-0.3,1.2c0,0,0.3,0.6-0.2,1c0,0-1.1,0.1-1.5,0.3c-0.4,0.2-3.3,0.2-5.4-0.1
					C1413.4,151.9,1412,151.1,1413,148.1z"/>
			</g>
		</g>
		<g>
			<g>
				<path class="st56" d="M1416.6,148.4c0,0-0.5,1.2-0.8,1.4c-0.3,0.3,2,1.8,2,1.8S1417.9,149.1,1416.6,148.4z"/>
			</g>
		</g>
		<g>
			<g>
				<path class="st57" d="M1420.5,146.3c0,0-3.2,0.2-3.2,0.7c0,0.5,0.3,0.7,0.3,0.7l-1.3,0.7c0,0-0.6,0.9,0.6,1.3c0,0-0.6,0.8,0.5,1
					c0,0-0.2,0.7,0.3,0.9c0.5,0.2,2.5,0,2.5,0s0.5-0.2,0.3-1c0,0,0.6-0.5,0.3-1.2c0,0,0.5-0.8,0.2-1.5c0,0,0.4-0.9-0.2-1.6
					C1420.8,146.3,1420.6,146.3,1420.5,146.3z"/>
			</g>
		</g>
		<g>
			<g>
				<path class="st55" d="M1415.2,146.1c0,0,2,0.9,2.9,1.8c0.2,0.2,0.3,0.5,0.2,0.7c-0.1,0.3-0.7,0.4-1.5,0.1
					c-0.9-0.3-2.2-0.4-2.2-0.4S1413.8,147.8,1415.2,146.1z"/>
			</g>
		</g>
		<g>
			<path class="st55" d="M1421,147.9c0,0-3.4-0.2-3.7-0.1c-0.3,0.2-0.2-1.1,0-1.2c0.3-0.1,3.1-0.4,3.4-0.3
				C1421,146.3,1421.6,147.3,1421,147.9z"/>
		</g>
		<g>
			<path class="st55" d="M1420.1,146.2c0,0,5.6,0.4,5.6,1.1c0,0.6-1.3,1.1-5.6,0.6C1415.9,147.4,1420.1,146.2,1420.1,146.2z"/>
		</g>
		<g>
			<g>
				<g>
					<path class="st58" d="M1391.1,228.1c0,0,3,1.7,4.4,2.4c1.4,0.6,6.6,0.8,7.1,1.2c0.5,0.5,0.4,2.1-0.5,2.2
						c-0.9,0.2-7.2,0.8-9.4,0.4c-2.1-0.5-6.1,0.4-7,0.1c-0.9-0.3-0.4-5-0.1-6.1C1386,227.2,1391.1,228.1,1391.1,228.1z"/>
				</g>
			</g>
		</g>
		<g>
			<g>
				<g>
					<path class="st59" d="M1391,226.1l0.2,2c0,0-4,0.8-5.4,0.2l0.3-2L1391,226.1z"/>
				</g>
			</g>
		</g>
		<g>
			<g>
				<g>
					<path class="st58" d="M1338,239.5c0,0,2.9,2,4.2,2.7c1.3,0.7,6.5,1.3,7,1.8c0.5,0.5,0.2,2.1-0.7,2.2c-0.9,0.1-7.3,0.3-9.4-0.4
						c-2.1-0.6-6.1-0.1-7-0.4c-0.9-0.4,0-5.1,0.4-6.1C1333,238.2,1338,239.5,1338,239.5z"/>
				</g>
			</g>
		</g>
		<g>
			<g>
				<g>
					<path class="st59" d="M1338.4,237.6l-0.4,1.9c0,0-4,0.5-5.2-0.2l0.4-2L1338.4,237.6z"/>
				</g>
			</g>
		</g>
		<path class="st58" d="M1371.1,178c-0.4,1.3-1.4,4-2.4,6.9c-0.2,0.6-0.5,1.3-0.7,1.9c-1.4,3.9-2.8,7.5-2.8,7.5
			c-2.1,4.8-7,15-9.4,16.7c-3.2,2.4-17.4,27.8-17.4,27.8l-6.4-0.8c0,0,6.9-19,9.8-23.2c3.2-4.7,8.3-10.8,8.8-16
			c0.3-3.3,2.4-13.4,2.4-13.4s2.4-11.4,7.5-18.8C1361.8,164.8,1371.1,178,1371.1,178z"/>
		<g>
			<path class="st58" d="M1377.9,176.8c0,0,17.8,13.3,19.8,16c2,2.7,0.8,7.1,0.5,8.4c-0.3,1.3-5.9,23.2-6.1,25.5
				c0,0-5.5,1.4-6.9-0.4c0,0,1.9-20.8,3.2-25.1c1.3-4.3-4.8-7.1-8.2-8.7c-3.5-1.6-21.1-10-20.8-13.4c0.2-2.4,0.5-4.6,0.5-4.6
				S1363.3,171.7,1377.9,176.8z"/>
		</g>
		<path class="st60" d="M1378.1,143c0,0,11.5,2.2,16.9,2.8c1.7,0.2,17.5,1.4,18.2,1.5c0.6,0.1,0.2,5.2,0.2,5.2s-17.7-1.2-18.8-1.1
			c-1.1,0.1-17.5-1.1-19-2.2c-1.5-1.1-2.6-2.9-1.7-4.7C1375.2,142.2,1378.1,143,1378.1,143z"/>
		<g>
			<path class="st61" d="M1377.5,141.4c0,0,2,5.8,2,9.2c0,3.3-3.1,13.3-3.3,15.2c-0.6,5,1.7,11.1,1.7,11.1l-18.3,3.5
				c0,0-0.5-5.3-0.4-11.6c0.1-6.3,1.9-11.5,2.4-15.1c1.5-12.3,11.7-15.1,11.7-15.1L1377.5,141.4z"/>
		</g>
		<g>
			<path class="st55" d="M1385.9,127c0,0,1.7,3.1,0.8,3.5c-0.7,0.4,0.8,3.4,1,3.9c0.2,0.5-1.2,0.8-1.5,1.2c-0.3,0.3-1.2,4.2-2.4,4.3
				c-1.2,0.1-6.4-1.7-7.9-3.2c-1.4-1.5-2.6-8.2-1.7-11.1C1375.3,122.8,1383,121.6,1385.9,127z"/>
		</g>
		<g>
			<path class="st55" d="M1380.3,139.1c0,0-0.1,0.3-0.3,0.8c-0.1,0.2-0.2,0.4-0.3,0.7c-0.1,0.2-0.2,0.4-0.3,0.6
				c-0.5,1.3-1.1,2.9-1.2,3.8c-0.2,1.5-4.4-6.4-4.4-6.4s2-4.5,3.4-9.7C1378.6,123.5,1380.3,139.1,1380.3,139.1z"/>
		</g>
		<g>
			<path class="st62" d="M1386.3,127.6c0,0,1.7-3.3-1.4-5.8c-3.1-2.5-9.7,0.8-10.3,0.9c-0.6,0.2-3.2,1.5-1.5,7.9
				c1.6,5.8,1.8,5.3,1.8,5.3s1.1-2.8,1.8-3.3c1-0.8,3.3-0.6,3.3-0.6s-1.1-2.9,0.6-3.3C1382.3,128.4,1384.6,127,1386.3,127.6z"/>
		</g>
		<g>
			<path class="st55" d="M1378.2,130.5c-0.1-0.4-0.6-2.1-2.1-1.1c-1.5,1,0.9,4.2,1.2,4.2C1377.5,133.7,1379.5,133.8,1378.2,130.5z"
				/>
		</g>
		<g>
			<path class="st63" d="M1374.2,137.8c0,0,2.9,4.3,4.6,6.2l-0.5,3l-5-8.5L1374.2,137.8z"/>
		</g>
		<path class="st64" d="M1380.3,139.1c0,0-0.1,0.3-0.3,0.8c-0.1,0.2-0.2,0.4-0.3,0.7c-2.8-2.1-3.5-3.6-3.5-3.7
			C1377.5,137.9,1380.3,139.1,1380.3,139.1z"/>
		<path class="st58" d="M1378.7,144.2c0,0,0.5,2,0.4,2.7c-0.1,0.3-0.9-0.1-0.9-0.1L1378.7,144.2z"/>
		<path class="st65" d="M1377.9,176.8c0,0-0.5-1.6-0.6-2l-17.9,3.3l0.2,2.2C1359.6,180.3,1372.6,178,1377.9,176.8z"/>
		<g>
			<path class="st66" d="M1347.3,188.3l-7.5-0.9c-0.8-0.1-1.3-0.8-1.2-1.5l0.6-4.7c0.1-0.8,0.8-1.3,1.5-1.2l7.5,0.9
				c0.8,0.1,1.3,0.8,1.2,1.5l-0.6,4.7C1348.8,187.9,1348.1,188.4,1347.3,188.3z M1340.6,180.9c-0.2,0-0.5,0.1-0.5,0.4l-0.6,4.7
				c0,0.2,0.1,0.5,0.4,0.5l7.5,0.9c0.2,0,0.5-0.1,0.5-0.4l0.6-4.7c0-0.2-0.1-0.5-0.4-0.5L1340.6,180.9z"/>
		</g>
		<g>
			
				<rect x="1329.8" y="184.1" transform="matrix(0.9924 0.1233 -0.1233 0.9924 33.9818 -164.0932)" class="st67" width="26.3" height="16.9"/>
		</g>
		<g>
			
				<rect x="1330.4" y="184.1" transform="matrix(0.9924 0.1233 -0.1233 0.9924 33.4078 -164.1907)" class="st68" width="26.3" height="7.5"/>
		</g>
		<g>
			
				<rect x="1341.4" y="189.8" transform="matrix(0.9924 0.1233 -0.1233 0.9924 33.7065 -164.1132)" class="st66" width="3.6" height="1"/>
		</g>
		<g>
			<path class="st55" d="M1340.7,180.8c0,0-0.1-0.7,0-1c0,0,0.2-0.5,0.4-0.9c0-0.1,0.1-0.2,0.1-0.3c0.1-0.3,0.1-1,0.5-1.7
				c0.4-0.7,1.9-3,1.9-3l2.2,1l2.1,0.3c0,0,0.3,4.7,0,5.4c0,0.1-0.1,0.1-0.1,0.2c-0.3,0.6-0.7,0.9-0.9,1.1c-0.1,0.1-0.8,1.1-1.2,1.1
				c-0.5,0-0.9-0.2-1.1-0.4c0,0-1,0-1.5-0.4c0,0-0.9,0-1.4-0.7C1341.9,181.4,1340.9,181.3,1340.7,180.8z"/>
		</g>
		<path class="st60" d="M1372.2,146.6c0,0-10.6,8.2-14.3,12.7c-1.2,1.4-8.4,15.5-8.9,16c-0.5,0.5-5.8-1.1-5.8-1.1s8.6-17.6,9.1-18.7
			s15.8-15.3,17.7-16c1.9-0.7,2.2,0.2,3.2,2.2C1374.7,144.4,1372.2,146.6,1372.2,146.6z"/>
		<g>
			<path class="st60" d="M1378.2,152.9c-0.4,1.1-0.8,2.2-1.1,3.4v0c-0.8,2.5-1.4,5-2,7.4c-0.2,0.9-0.4,1.7-0.6,2.6
				c-2.1,10.1-7.5,17.6-7.5,17.6s-8.1-0.6-10-2c0,0,0.5-11.7,3.1-22.9c0.2-0.9,0.4-1.7,0.6-2.6c0,0,0,0,0,0
				c2.4-9.1,6.2-17.2,12.4-17.8C1373.3,138.7,1380.3,147.1,1378.2,152.9z"/>
		</g>
		<path class="st60" d="M1359.9,159.8c0,0-0.8,10.4-7.9,20.6c-0.9,1.2,9.8,2.9,9.8,2.9L1359.9,159.8z"/>
		<path class="st69" d="M1368.1,150c-2.5,2.6-7.9,9-7.9,9c0.2-0.9,0.4-1.7,0.6-2.6c0,0,0,0,0,0C1362.7,154.4,1368,150,1368.1,150z"
			/>
		<g>
			<g>
				<path class="st58" d="M1379.1,146.8c0,0-1.1,7.3-7.4,7.8c-5.6,0.4-13.8,3.3-16.4,5.4l-3.3,2.9l0.8-3.8c0,0,2.4-6,18.9-5.2
					c0,0,5.1,0.9,6.7-7.8C1378.4,146.1,1379.2,146.5,1379.1,146.8z"/>
			</g>
		</g>
	</g>
	<g>
		<g>
			<g>
				<polygon class="st70" points="1474.3,371.8 1425.3,345.5 1441.9,344.1 				"/>
			</g>
		</g>
		<g>
			<g>
				<polygon class="st71" points="1474.3,371.8 1458.9,348 1446.4,347.9 				"/>
			</g>
		</g>
		<g>
			<g>
				<polygon class="st72" points="1436.6,351.5 1435.7,357.7 1474.3,371.8 				"/>
			</g>
		</g>
	</g>
	<g>
		<g>
			<g>
				<polygon class="st70" points="1333.5,127.1 1279.8,141.6 1291,129.1 				"/>
			</g>
		</g>
		<g>
			<g>
				<polygon class="st71" points="1333.5,127.1 1306,120.3 1296.8,128.9 				"/>
			</g>
		</g>
		<g>
			<g>
				<polygon class="st72" points="1292.1,138.2 1295.7,143.3 1333.5,127.1 				"/>
			</g>
		</g>
	</g>
	<g>
		<g>
			<g>
				<polygon class="st70" points="1053.2,119.4 997.6,116.9 1012.1,108.4 				"/>
			</g>
		</g>
		<g>
			<g>
				<polygon class="st71" points="1053.2,119.4 1029.1,104.6 1017.7,110 				"/>
			</g>
		</g>
		<g>
			<g>
				<polygon class="st72" points="1010.4,117.5 1012.3,123.4 1053.2,119.4 				"/>
			</g>
		</g>
	</g>
	<g>
		<g>
			<linearGradient id="SVGID_44_" gradientUnits="userSpaceOnUse" x1="962.7385" y1="341.9161" x2="1417.1001" y2="341.9161">
				<stop  offset="0" style="stop-color:#F8E7D8"/>
				<stop  offset="1" style="stop-color:#C3BFB7"/>
			</linearGradient>
			<path class="st73" d="M1416.6,343.2c0,0-0.9-0.7-2.6-1.8l0.4-0.7c1.8,1.1,2.6,1.8,2.7,1.9L1416.6,343.2z"/>
		</g>
		<g>
			<linearGradient id="SVGID_45_" gradientUnits="userSpaceOnUse" x1="980.6201" y1="359.331" x2="1416.7711" y2="359.331">
				<stop  offset="0" style="stop-color:#F8E7D8"/>
				<stop  offset="1" style="stop-color:#C3BFB7"/>
			</linearGradient>
			<path class="st74" d="M1359.1,327.5c-2.1,0-4.2,0.1-6.4,0.2l0,0.8c2.1-0.1,4.3-0.2,6.4-0.2L1359.1,327.5z M1365.5,327.5l0,0.8
				c2.1,0.1,4.3,0.2,6.4,0.4l0.1-0.8C1369.8,327.7,1367.6,327.6,1365.5,327.5z M1346.3,328.2c-2.1,0.2-4.2,0.4-6.4,0.7l0.1,0.8
				c2.1-0.3,4.2-0.5,6.3-0.7L1346.3,328.2z M1378.2,328.6l-0.1,0.8c2.1,0.3,4.2,0.6,6.3,1l0.1-0.8
				C1382.5,329.2,1380.3,328.9,1378.2,328.6z M1333.6,329.8c-2.1,0.4-4.2,0.7-6.3,1.2l0.2,0.8c2.1-0.4,4.2-0.8,6.3-1.2L1333.6,329.8
				z M1390.8,331l-0.2,0.8c2.1,0.5,4.1,1.1,6.1,1.8l0.2-0.8C1395,332.1,1392.9,331.5,1390.8,331z M1321.1,332.4
				c-2,0.5-4.1,1-6.2,1.6l0.2,0.8c2.1-0.6,4.1-1.1,6.2-1.6L1321.1,332.4z M1403,334.9l-0.3,0.7c2,0.8,4,1.7,5.8,2.6l0.4-0.7
				C1407,336.6,1405,335.7,1403,334.9z M1308.7,335.7c-2,0.6-4,1.2-6.1,1.8l0.2,0.8c2.1-0.7,4.2-1.3,6.1-1.8L1308.7,335.7z
				 M1296.5,339.4c-2,0.6-4,1.3-6.1,2l0.2,0.8c2.1-0.7,4.1-1.3,6.1-2L1296.5,339.4z M1284.4,343.4c-2,0.7-4,1.3-6.1,2l0.2,0.8
				c2.1-0.7,4.1-1.3,6.1-2L1284.4,343.4z M1272.2,347.4l-6.1,2l0.2,0.8l6.1-2L1272.2,347.4z M1260.1,351.4c-2,0.7-4,1.3-6.1,2
				l0.2,0.8c2-0.7,4.1-1.3,6.1-2L1260.1,351.4z M1248,355.3c-2,0.6-4,1.3-6.1,1.9l0.2,0.8c2-0.7,4.1-1.3,6.1-2L1248,355.3z
				 M1235.8,359.2c-2,0.6-4,1.3-6.1,1.9l0.2,0.8c2-0.6,4.1-1.3,6.1-1.9L1235.8,359.2z M1223.6,363c-2,0.6-4.1,1.2-6.1,1.8l0.2,0.8
				c2-0.6,4.1-1.2,6.1-1.8L1223.6,363z M1211.4,366.6c-2,0.6-4.1,1.2-6.1,1.8l0.2,0.8c2.1-0.6,4.1-1.2,6.1-1.8L1211.4,366.6z
				 M1199.1,370.1c-2,0.6-4.1,1.1-6.2,1.7l0.2,0.8c2.1-0.5,4.1-1.1,6.2-1.7L1199.1,370.1z M985.4,371.7v0.9c0.4,0.2,0.8,0.4,1.2,0.6
				l0.4-0.7C986.5,372.2,986,372,985.4,371.7z M1186.8,373.4c-2.1,0.5-4.1,1.1-6.2,1.6l0.2,0.8c2.1-0.5,4.1-1,6.2-1.6L1186.8,373.4z
				 M992.7,375.3l-0.3,0.7c1.9,0.9,3.9,1.7,5.9,2.5l0.3-0.7C996.6,377,994.6,376.2,992.7,375.3z M1174.4,376.5
				c-2.1,0.5-4.1,1-6.2,1.5l0.2,0.8c2.1-0.5,4.1-1,6.2-1.5L1174.4,376.5z M1162,379.3c-2.1,0.5-4.2,0.9-6.2,1.3l0.2,0.8
				c2.1-0.4,4.2-0.9,6.2-1.3L1162,379.3z M1004.5,380l-0.3,0.8c2,0.7,4,1.4,6.1,2l0.2-0.8C1008.5,381.4,1006.5,380.7,1004.5,380z
				 M1149.5,382c-2.1,0.4-4.2,0.8-6.3,1.2l0.1,0.8c2.1-0.4,4.2-0.8,6.3-1.2L1149.5,382z M1016.7,383.8l-0.2,0.8
				c2,0.5,4.1,1.1,6.2,1.5l0.2-0.8C1020.8,384.8,1018.7,384.3,1016.7,383.8z M1136.9,384.3c-2.1,0.4-4.2,0.7-6.3,1.1l0.1,0.8
				c2.1-0.3,4.2-0.7,6.3-1.1L1136.9,384.3z M1124.3,386.3c-2.1,0.3-4.2,0.6-6.3,0.9l0.1,0.8c2.1-0.3,4.2-0.6,6.3-0.9L1124.3,386.3z
				 M1029.1,386.6l-0.2,0.8c2.1,0.4,4.2,0.8,6.3,1.1l0.1-0.8C1033.3,387.4,1031.2,387,1029.1,386.6z M1111.7,388
				c-2.1,0.2-4.2,0.5-6.3,0.7l0.1,0.8c2.1-0.2,4.2-0.4,6.4-0.7L1111.7,388z M1041.7,388.6l-0.1,0.8c2.1,0.3,4.2,0.5,6.4,0.7l0.1-0.8
				C1045.9,389.1,1043.8,388.8,1041.7,388.6z M1099,389.2c-2.1,0.2-4.3,0.3-6.4,0.5l0,0.8c2.1-0.1,4.2-0.3,6.4-0.5L1099,389.2z
				 M1054.4,389.8l-0.1,0.8c2.1,0.1,4.2,0.3,6.4,0.4l0-0.8C1058.6,390.1,1056.5,389.9,1054.4,389.8z M1086.2,390.1
				c-2.1,0.1-4.3,0.2-6.4,0.2l0,0.8c2.1-0.1,4.2-0.1,6.4-0.2L1086.2,390.1z M1072.3,390.4c-1.8,0-3.5,0-5.2,0l0,0.8
				c1.7,0,3.5,0,5.2,0h1.2v-0.8H1072.3z"/>
		</g>
	</g>
	<g>
		<linearGradient id="SVGID_46_" gradientUnits="userSpaceOnUse" x1="1181.2017" y1="134.2302" x2="1190.3833" y2="81.6605">
			<stop  offset="0" style="stop-color:#F8E7D8"/>
			<stop  offset="1" style="stop-color:#C3BFB7"/>
		</linearGradient>
		<path class="st75" d="M1166.9,130.8c-2.1-0.1-4.3-0.2-6.4-0.4l0.1-0.8c2.1,0.2,4.3,0.3,6.4,0.4L1166.9,130.8z M1173.3,130.7l0-0.8
			c2.1-0.1,4.2-0.3,6.4-0.5l0.1,0.8C1177.6,130.4,1175.5,130.6,1173.3,130.7z M1154.1,129.5c-2.1-0.4-4.2-0.8-6.3-1.4l0.2-0.8
			c2.1,0.5,4.2,1,6.2,1.4L1154.1,129.5z M1186.2,129.2l-0.1-0.8c1-0.2,2-0.4,3.1-0.6c1.1-0.2,2.2-0.5,3.2-0.7l0.2,0.8
			c-1.1,0.2-2.1,0.5-3.2,0.7C1188.2,128.8,1187.2,129,1186.2,129.2z M1281,129c0,0-2-1-6-2.1l0.2-0.8c4,1.2,6,2.1,6.1,2.2L1281,129z
			 M1198.7,126.6l-0.1-0.8c2.1-0.4,4.3-0.8,6.3-1.1l0.1,0.8C1203,125.9,1200.9,126.2,1198.7,126.6z M1141.6,126.3
			c-2-0.7-4-1.5-6-2.3l0.3-0.7c1.9,0.8,4,1.6,6,2.3L1141.6,126.3z M1268.8,125.4c-2-0.4-4.1-0.8-6.3-1.2l0.1-0.8
			c2.2,0.3,4.3,0.7,6.3,1.2L1268.8,125.4z M1211.4,124.6l-0.1-0.8c2.1-0.3,4.3-0.6,6.4-0.8l0.1,0.8
			C1215.7,124,1213.5,124.3,1211.4,124.6z M1256.2,123.4c-2.1-0.2-4.2-0.4-6.4-0.5l0-0.8c2.2,0.1,4.3,0.3,6.4,0.5L1256.2,123.4z
			 M1224.2,123.2l-0.1-0.8c2.2-0.2,4.3-0.3,6.4-0.4l0,0.8C1228.5,122.9,1226.3,123,1224.2,123.2z M1243.4,122.6
			c-2.1,0-4.2-0.1-6.4,0l0-0.8c2.2,0,4.4,0,6.4,0L1243.4,122.6z M1129.8,121.1c-1.9-1-3.8-2.1-5.6-3.2l0.4-0.7
			c1.8,1.1,3.7,2.2,5.5,3.2L1129.8,121.1z M1118.9,114.2c-1.7-1.3-3.4-2.7-5-4.1l0.5-0.6c1.6,1.4,3.2,2.8,5,4L1118.9,114.2z
			 M1109.2,105.7c-1.5-1.6-2.9-3.2-4.3-4.9l0.6-0.5c1.3,1.6,2.7,3.3,4.2,4.8L1109.2,105.7z M1101.1,95.6c-1.2-1.8-2.3-3.7-3.2-5.6
			l0.7-0.4c0.9,1.8,2,3.7,3.2,5.5L1101.1,95.6z M1095.3,84.1c-0.8-2.1-1.3-4.2-1.7-6.3l0.8-0.1c0.3,2,0.9,4,1.6,6.1L1095.3,84.1z
			 M1094.1,71.4l-0.8,0c0.1-2.3,0.6-4.4,1.3-6.4l0.7,0.3C1094.6,67.1,1094.2,69.1,1094.1,71.4z"/>
	</g>
	<g>
		<linearGradient id="SVGID_47_" gradientUnits="userSpaceOnUse" x1="953.6288" y1="105.8807" x2="998.2863" y2="105.8807">
			<stop  offset="0" style="stop-color:#F8E7D8"/>
			<stop  offset="1" style="stop-color:#C3BFB7"/>
		</linearGradient>
		<path class="st76" d="M979.1,103.7v0.8c2.2,0,4.3,0.1,6.4,0.3l0.1-0.8C983.5,103.8,981.3,103.7,979.1,103.7z M972.7,103.9
			c-2.1,0.2-4.3,0.4-6.4,0.7l0.1,0.8c2.1-0.3,4.3-0.5,6.4-0.7L972.7,103.9z M992,104.8l-0.1,0.8c3.9,0.7,6.2,1.5,6.2,1.5l0.3-0.8
			C998.2,106.3,996,105.5,992,104.8z M959.9,105.7c-2.1,0.4-4.2,1-6.3,1.5l0.2,0.8c2.1-0.6,4.2-1.1,6.2-1.5L959.9,105.7z"/>
	</g>
	<g>
		<g>
			<path class="st77" d="M1065.3,275.6c0,0-0.5,3.2-0.5,3.7s-5-0.3-5-0.3l-0.4-3.8C1059.3,275.2,1064.7,275.2,1065.3,275.6z"/>
		</g>
		<g>
			<path class="st78" d="M1064.8,278.9c0,0,1.6,1.9,3.1,2.7c1.5,0.8,3.9,1.2,4.8,2c0.7,0.6,2.4,3.3-4,3.3c-6.3-0.1-9.4,0.4-10.1-0.6
				c-0.7-1,1-7.6,1-7.6S1061.2,279.2,1064.8,278.9z"/>
		</g>
		<g>
			<path class="st77" d="M1101,275.6c0,0-0.5,3.2-0.5,3.7s-5-0.3-5-0.3l-0.4-3.8C1095.1,275.2,1100.4,275.2,1101,275.6z"/>
		</g>
		<g>
			<path class="st78" d="M1100.6,278.9c0,0,1.6,1.9,3.1,2.7c1.5,0.8,7.1,1.5,8.1,2.4c0.7,0.6,1.7,3.1-7.2,2.9
				c-6.3-0.2-9.4,0.4-10.1-0.6c-0.7-1,1-7.6,1-7.6S1096.8,279.2,1100.6,278.9z"/>
		</g>
		<g>
			<path class="st79" d="M1067.1,193.7c0,0-2.7,7.9-2.3,14.7c0.3,6.8-1.4,14.2-2.1,21.3c-0.8,7.9-4,26.6-4.1,30.9
				c-0.1,4.2,0.5,17.7,0.5,17.7l6.4,0.1c0,0,5.4-32.7,6.8-36.1c1.4-3.3,8.3-27.1,8.6-29.8C1081.1,209.8,1067.1,193.7,1067.1,193.7z"
				/>
		</g>
		<g>
			<path class="st78" d="M1094.1,195.1c0,0,3.5,18.6,4,22.8c0.5,4.2,0.8,20.1,1,22.7c0.2,2.6,1.6,34,2.8,37.8h-8.2
				c0,0-6.3-22.8-6.3-33.6c0-10.8-4.9-23.5-8-30.6c-3.1-7.1-10.3-7.3-12.3-20.5C1067.1,193.7,1091.5,190.9,1094.1,195.1z"/>
		</g>
		<g>
			<path class="st80" d="M1077.4,131.5c0,0,6.5-2.4,9.5,2.5c3,4.9,2.7,14.8-0.6,16c-3.3,1.2-8.2,0.6-9.8-2.5
				c-1.7-3.1-3.2-7.5-3.1-10.5C1073.4,134,1075.7,132.3,1077.4,131.5z"/>
		</g>
		<g>
			<path class="st80" d="M1085.2,149.7c0,0-0.3,1.7,0.2,2.5c0.4,0.8-8.1,0.9-8.1,0.9s-0.7-4.5-2-8.4
				C1073.9,140.8,1085.2,149.7,1085.2,149.7z"/>
		</g>
		<g>
			<path class="st81" d="M1075.2,144.7c0,0,0.6,1,3,0.6c2.4-0.4,5.4-3.6,6.4-3.9c1-0.4,1-0.9,1-0.9l0.6,0.9l1.1,0.1c0,0-1-2.9,0.5-4
				c1.5-1.2-1.5-9.3-9.3-6.6c0,0-6,1.6-5.7,5C1073,139.1,1073.9,143,1075.2,144.7z"/>
		</g>
		<g>
			<path class="st82" d="M1085.9,152.1c0,0,0-1.6-0.8-1.8c-0.7-0.2-8-0.9-8.9-0.5v1.9C1076.2,151.7,1078,152.8,1085.9,152.1z"/>
		</g>
		<g>
			<path class="st80" d="M1085.4,139.2c-0.1-0.6-1.6-2.2-2.1-0.5c-0.6,1.7,0.8,4.1,1.6,3.9C1085.7,142.4,1085.8,140.6,1085.4,139.2z
				"/>
		</g>
		<g>
			<path class="st83" d="M1085.9,152.1c0,0,4,1.4,8.6,3.4c0,0,5.3,2,5.9,7.8c0.3,3.1,3.6,19.6,4.2,21s8,23.8,8.2,24.3
				c0.3,0.5-6,3.1-6.4,2.9c-0.4-0.2-7.1-20.5-7.8-22c0,0-3.9-12.2-4-14c0,0-0.1,5.2-0.3,6.6c-0.2,1.4,3.4,29.6,3.3,30.4
				c-0.1,0.8-16.5,1.8-23.1,1c-6.6-0.7-11.9-2.2-11.9-2.2s5.2-22.2,5-24.7c-0.3-5.4-2.1-15.5-2.1-15.5l-5.4,10.1l6.9,17.6l-1.6,5.4
				c0,0-12.8-19.3-13.2-21c-0.4-1.8,0.6-4,1.3-5.5c0.7-1.4,5.1-12.5,6.1-14c1-1.6,2.8-7.8,7-9.5c3.5-1.4,9.5-2.6,9.5-2.6
				L1085.9,152.1z"/>
		</g>
		<g>
			
				<rect x="1091.5" y="193.7" transform="matrix(-0.9687 0.2483 -0.2483 -0.9687 2230.0632 127.7739)" class="st5" width="31" height="21.6"/>
		</g>
		<g>
			<path class="st84" d="M1115.4,213.3c0,0,0.9,1.4,1.2,1.8c0.3,0.4-0.8,0.6-1.2,0.2C1114.9,214.9,1115.4,213.3,1115.4,213.3z"/>
		</g>
		<g>
			<path class="st85" d="M1109.2,218c0,0-0.5-0.5-0.6-0.9c0,0-0.2-0.6-0.3-1.1c0-0.1-0.1-0.3-0.1-0.3c-0.1-0.3-0.6-1-0.7-1.8
				c-0.1-0.9-0.5-4.7-0.5-4.7l2.3-0.6l1.9-0.4c0,0,4,4,4.3,4.8c0,0.1,0,0.2,0,0.2c0.1,0.7-0.1,1.2-0.1,1.6c0,0.1,0,1.5-0.3,1.7
				c-0.4,0.3-0.9,0.4-1.2,0.3c0,0-0.9,0.6-1.6,0.6c0,0-0.8,0.6-1.7,0.3C1110.6,217.8,1109.7,218.3,1109.2,218z"/>
		</g>
		<g>
			<path class="st83" d="M1100.1,193.7c0,0,5.3,16.1,6.3,17.8c0,0,3.9-0.8,6.4-2.9l-5.9-17.4L1100.1,193.7z"/>
		</g>
	</g>
	<g>
		<g>
			<g>
				<path class="st86" d="M1212.3,151.9c-0.7,1.1-9.4,11-9.9,12.2c-0.6,1.2-4.2,5.9-4.2,5.9l-1.8-1.6c0,0,3.1-6.7,5.6-11.5l0,0
					c0.2-0.5,0.5-0.9,0.7-1.3c0.9-1.6,1.6-2.8,2-3.1c1.6-1.3,3.9-3.1,2.9-4.8c-1-1.7-5.1-11-5.2-11.9c-0.1-0.9-7.9-15.5,6.3-9.1
					c0,0,3.9,9.6,3.7,15.3C1212.1,147.7,1213,150.8,1212.3,151.9z"/>
			</g>
		</g>
		<g>
			<g>
				<path class="st87" d="M1198.2,170c0,0-0.2,1.1,0,1.8c0.2,0.7,0.5,3.6,1.3,4.1s2.4,0.9,2.4,1c-0.1,0.6-0.6,0.9-2.3,0.8
					c-1.7-0.1-3.2-2.5-4.2-4.1c-1-1.7-2.5-2.5-1.4-3.5c1-1,2.5-2,2.7-2.2C1196.8,167.6,1198.2,170,1198.2,170z"/>
			</g>
		</g>
		<g>
			<g>
				<path class="st80" d="M1196.3,125.9c0,0-3,5-1.5,8.6c1.4,3.5,7.2,11.7,7.7,12.9c0.5,1.3,1.7,3,0.6,3.3c-1.4,0.3-3.2,0.5-5.9,2
					c-1.8,1-4.6,1.2-6.5,1.9c-0.8,0.3-1.1,2-0.3,2.5c0.6,0.4,15.5-1.5,17.7-2.7c1-0.5,1.1-2,0.3-6c-0.4-1.8-2.1-7.8-2.6-10
					c-0.5-2.2-1.5-5.4-1.5-5.4S1206.5,120.3,1196.3,125.9z"/>
			</g>
		</g>
		<g>
			<g>
				<path class="st80" d="M1190.4,157.1c0,0-1.4-0.2-2.1-0.1c-0.7,0-3.2-0.1-4,0c-0.7,0.1-1.3,0.9-1.7,0.7c-0.4-0.2,0.4-1.2,1.3-1.7
					c0.9-0.5,3.3-1.9,4.6-2.9c1.2-1,1.9-1.1,2.4-0.1c0.5,1,0.9,2.6,1.2,3C1192.5,156.4,1190.4,157.1,1190.4,157.1z"/>
			</g>
		</g>
		<path class="st88" d="M1212.8,146.5c0,0,1.3,1.7-11,0.6c0,0-11.3-12.8-6.8-19.7c2.4-3.7,14.1-1.4,14.1-1.4
			S1211.9,129.8,1212.8,146.5z"/>
		<path class="st89" d="M1201.9,176.9c0,0,0.2-0.7-2.2-1c-1.4-0.1-3.7-3.4-3.9-3.8s-0.7-2.6-1.1-2.7c-0.4-0.1-1.8,1.3-0.6,2.7
			c1.2,1.5,2.9,5.3,5.6,5.5C1201.7,177.8,1201.9,177.3,1201.9,176.9z"/>
		<path class="st89" d="M1191.3,153.5c0,0-0.3-2.2-2-1c-1.7,1.2-3.3,2.4-5.1,3.4c-1.9,1-1.8,1.7-1.3,2c0.5,0.3,1.7-0.6,2.5-0.9
			C1186.1,156.6,1187.4,154.9,1191.3,153.5z"/>
		<path class="st90" d="M1202.6,155.7c0,0,4-0.8,5-1.1c-0.9,0.4-5.3,2.2-5.7,2.4C1202.1,156.5,1202.4,156.1,1202.6,155.7z"/>
		<path class="st80" d="M1180,88.3c0,0,0.5-1.5,0.6-1.7c0.1-0.2-0.1-0.9-0.4-1.6c-0.3-0.7-1-1.6-1.1-1.6s-0.2-0.1-0.6,0
			c-0.3,0.1-0.5,0.4-0.5,0.4s-0.5,0-0.7,0.3c0,0-0.4,0-0.6,0.4c0,0-0.4,0-0.5,0.3c0,0,0.2,0.6,0.2,0.9c0,0.3,0.7,1.9,1.3,3
			C1177.8,88.9,1178.6,89.6,1180,88.3z"/>
		<path class="st91" d="M1179,86.3c0,0-0.5,0.6-0.6,0.8c-0.1,0.2-1.7-0.5-1.7-0.5S1178.3,85.7,1179,86.3z"/>
		<path class="st92" d="M1179.2,83.7c0,0,0.6,1.8,0.4,2c-0.3,0.1-0.5,0-0.5,0l-0.1,0.9c0,0-0.4,0.5-0.9,0c0,0-0.3,0.5-0.7-0.1
			c0,0-0.4,0.3-0.6,0c-0.2-0.2-0.6-1.4-0.6-1.4s0-0.3,0.5-0.4c0,0,0.1-0.4,0.6-0.5c0,0,0.2-0.3,0.7-0.3c0,0,0.5-0.7,1.1-0.4
			C1179.2,83.5,1179.2,83.6,1179.2,83.7z"/>
		<path class="st80" d="M1180.6,86.6c0,0-1-0.9-1.7-1.2c-0.2-0.1-0.3-0.1-0.5,0c-0.1,0.1-0.1,0.5,0.3,0.9s0.7,1.1,0.7,1.1
			S1180,87.8,1180.6,86.6z"/>
		<g>
			<g>
				<g>
					<path class="st80" d="M1223.4,118.8c0,0,0.5,0.1,0.9,0.2c0.3,0.2,0.8,0.2,1,0.3c0.3,0.1,1.4,0.4,1.6,0.6
						c0.1,0.1,0.5,0.7,0.8,0.8c0.2,0.1,0.7,0.3,0.6,0.5c-0.1,0.2-0.6,0.1-0.6,0.1s0.2,0.1,0.1,0.3c-0.1,0.4-0.3,0.4-0.3,0.4
						s0.1,0.2,0,0.4c-0.2,0.3-0.4,0.4-0.4,0.4s0,0.2-0.1,0.4c-0.2,0.2-0.5,0.2-0.5,0.2s-0.2,0.4-0.4,0.3c-0.2,0-0.4-0.2-0.5-0.2
						c-0.2-0.1-1.4-1-2-2c-0.6-1-1.8-1.2-1.8-1.2L1223.4,118.8z"/>
				</g>
			</g>
		</g>
		<g>
			<path class="st93" d="M1231,123.7l-4,3.2c-0.4,0.3-1,0.3-1.3-0.2l-2-2.5c-0.3-0.4-0.3-1,0.2-1.3l4-3.1c0.4-0.3,1-0.3,1.3,0.2
				l2,2.5C1231.5,122.8,1231.4,123.3,1231,123.7z M1224.3,123.3c-0.1,0.1-0.2,0.3-0.1,0.4l2,2.5c0.1,0.1,0.3,0.2,0.4,0.1l4-3.1
				c0.1-0.1,0.2-0.3,0.1-0.4l-2-2.5c-0.1-0.1-0.3-0.2-0.4-0.1L1224.3,123.3z"/>
		</g>
		<g>
			
				<rect x="1222.6" y="122.7" transform="matrix(0.785 -0.6196 0.6196 0.785 184.7745 791.3906)" class="st89" width="19.5" height="13.7"/>
		</g>
		<g>
			
				<rect x="1220.9" y="123.3" transform="matrix(0.7849 -0.6196 0.6196 0.7849 185.7935 789.8113)" class="st94" width="19.5" height="7.9"/>
		</g>
		<g>
			<g>
				<path class="st92" d="M1227.6,121.2c0,0-1.1-0.8-1.5-0.7c-0.5,0.1-0.1,0.4-0.1,0.4s-0.4-0.3-0.7-0.1c-0.3,0.3,0.2,0.6,0.2,0.6
					s-0.3-0.2-0.5,0.2s0.3,0.6,0.3,0.6s-0.6,0-0.4,0.5c0.4,0.8,1.3,1,1.3,1s0.3,0,0.5-0.3c0,0,0.6,0.1,0.7-0.6c0,0,0.7-0.3,0.4-0.8
					C1227.6,122.1,1228.3,121.7,1227.6,121.2z"/>
			</g>
		</g>
		<g>
			<path class="st95" d="M1202.5,104.1c0,0,1.9-0.3,3.2,0.6c1.3,0.9,2.2,2.7,2.6,3.3c0.4,0.6,5.1,5.6,5.3,5.6
				c0.2,0.1,3.6,1.5,5.6,2.8c2,1.2,5.3,2.5,5.3,2.5l-1.3,2.6c0,0-9.3-3-11-4.5c-1.8-1.6-7.6-6.2-7.6-6.2S1199.7,106.8,1202.5,104.1z
				"/>
		</g>
		<g>
			<path class="st63" d="M1199.8,103.5c0,0,2,0.5,2.7,0.5c0.7,0,3.8,2.7,4.5,3.8c0.7,1.1,0.6,3,0.1,5.2c-0.5,2.3,0.5,2.8,0.5,4.9
				s0.5,6.6,0.8,7.8c0.3,1.1-10.1,3.4-12.9,1.8c0,0,1.7-4.1,1.9-4.6s-0.6-3.3-1-4c-0.4-0.7-3.5-6-3.5-6s-2.5-4.8-1.3-6.1
				c1-1.2,4.2-2.2,4.8-2.5C1196.8,104,1198.5,103.6,1199.8,103.5z"/>
		</g>
		<g>
			<path class="st80" d="M1194.8,90.9c1-0.6,4.9-2.4,6.8,2.6c2,5-0.1,9.2-3,8.8c-2.8-0.5-5.1-3.7-5.8-6.4
				C1192.2,93.2,1193.6,91.6,1194.8,90.9z"/>
		</g>
		<g>
			<path class="st96" d="M1201.7,93.5c0,0-0.7-4.5-5.1-3.7c-4.4,0.7-4.9,4.6-4,7.1c0.9,2.6,3,3.6,3,3.6s-0.6-2.1,0.2-2.8
				c0.7-0.7,3.9-2.5,4.9-5.4C1200.6,92.3,1201.5,93,1201.7,93.5z"/>
		</g>
		<g>
			<path class="st96" d="M1196.1,94.1c-0.2,1.9-1.7,3.2-3.4,3c-1.6-0.2-2.8-1.9-2.6-3.8c0.2-1.9,1.7-3.2,3.4-3
				C1195.2,90.6,1196.4,92.2,1196.1,94.1z"/>
		</g>
		<g>
			<path class="st80" d="M1200.2,101.2c0,0,0.3,3.5,0.6,4.6c0,0-1.5,2.3-4.6-1.4c0,0,0.6-1.9-0.6-4.1
				C1194.6,98,1200.2,101.2,1200.2,101.2z"/>
		</g>
		<g>
			<polygon class="st80" points="1200.8,105.8 1201.2,107.5 1198.7,106.3 			"/>
		</g>
		<g>
			<path class="st95" d="M1196,104.5c0,0,3.4,4.2,4.1,5.8c1.5,4,0.8,14.3,0.8,18.7c0,4.3-8.6,1.6-8.6,1.6s4.2-8.5,1.5-13.7
				c-2.7-5.2-3.5-8.5-3.5-8.5s0.8-2,2.5-2.6C1194.4,105.1,1196,104.5,1196,104.5z"/>
		</g>
		<g>
			<path class="st95" d="M1207.4,108.3c0,0,0.4,4,0,6.1c0,0,0.8,4.4,1.1,5.8c0.5,2.4,2.8,6.7,2.8,6.7l-2.2,2
				c-0.2,0.2-0.6,0.1-0.7-0.2c-0.4-3.9-2.9-21.2-7.4-24.9l1.8,0.2C1202.8,104,1206.3,106.2,1207.4,108.3z"/>
		</g>
		<g>
			<path class="st80" d="M1196,96.6c-0.2-0.4-0.8-0.4-1.1-0.1c-0.3,0.3-0.3,1,0.4,1.8C1195.9,99.2,1197.8,99.5,1196,96.6z"/>
		</g>
		<g>
			<path class="st95" d="M1198,114.5c0,0-2.4,2.9-4.3,0.6c-2-2.4-2.6-3.7-3.3-4.8c-0.6-1-5.1-6.9-5.3-7.2c-0.2-0.3-2.5-4.2-3.2-5.6
				c-0.5-1.1-4.2-8-4.4-8.3c-0.2-0.3,3.2-1.5,3.2-1.5s3.8,6.8,4.2,7.5c0.4,0.7,2.1,4.2,2.9,5.1c1,1.1,4.3,5.4,5,5.4
				C1193.5,105.8,1199.5,112.9,1198,114.5z"/>
		</g>
		<g>
			<path class="st90" d="M1200.3,102l0.1,0.7c0,0-1.5,0.6-3.9-1.4C1196.4,101.2,1198.2,102.7,1200.3,102z"/>
		</g>
		<path class="st88" d="M1208.3,113.6c0,0,0.3-2.8-0.6-4.6c0,0,0.4,1.6-0.2,4L1208.3,113.6z"/>
		<polygon class="st97" points="1200.1,106.1 1201.2,107.5 1197.9,105.9 		"/>
		<path class="st98" d="M1196.4,103.9c0,0,2.6,1.7,3.7,2.2l-1.7,2l-2.7-3.5L1196.4,103.9z"/>
		<path class="st97" d="M1201.2,107.5c0,0-0.7-3.4-0.7-3.9l1.1,2.1L1201.2,107.5z"/>
		<polygon class="st98" points="1200.5,103.6 1201,103.8 1203.5,106.4 1201.6,105.8 		"/>
	</g>
</g>
<g>
	<rect x="352" y="524" class="st99" width="101" height="101"/>
	<rect x="265" y="617" class="st100" width="275" height="16"/>
</g>
<path class="st101" d="M788.2,536H15.8C7.1,536,0,528.9,0,520.2v-35.4c0-8.7,7.1-15.8,15.8-15.8h772.4c8.7,0,15.8,7.1,15.8,15.8
	v35.4C804,528.9,796.9,536,788.2,536z"/>
<path class="st99" d="M788,0H16C7.2,0,0,7.2,0,16v468h804V16C804,7.2,796.8,0,788,0z M785.1,466.2H18.7V21h766.4V466.2z"/>
<path class="st102" d="M308.7,476.5L308.7,476.5z"/>
<path class="st103" d="M414.2,499.8l-25.4,25.4c-3-3.2-4.8-7.5-4.8-12.2c0-9.9,8.1-18,18-18C406.7,495,411,496.8,414.2,499.8z"/>
<path class="st99" d="M402,513"/>
<path class="st99" d="M420,513c0,9.9-8.1,18-18,18c-5.2,0-9.9-2.2-13.2-5.8l25.4-25.4C417.8,503.1,420,507.8,420,513z"/>
<line class="st104" x1="388.8" y1="525.2" x2="382" y2="532"/>
</svg>
