<?xml version="1.0" encoding="utf-8"?>
<!-- Generator: Adobe Illustrator 25.0.1, SVG Export Plug-In . SVG Version: 6.00 Build 0)  -->
<svg version="1.1" id="Layer_1" xmlns="http://www.w3.org/2000/svg" xmlns:xlink="http://www.w3.org/1999/xlink" x="0px" y="0px"
	 viewBox="0 0 500 500" style="enable-background:new 0 0 500 500;" xml:space="preserve">
<style type="text/css">
	.st0{fill:#183E25;}
	.st1{fill:#2E7D4B;}
	.st2{opacity:0.35;fill:#338853;enable-background:new    ;}
	.st3{opacity:0.47;fill:#338853;enable-background:new    ;}
	.st4{fill:#1F5231;}
	.st5{fill:#2C6844;}
	.st6{fill:#FFFFFF;}
</style>
<g>
	<g>
		<path class="st0" d="M486.86,249.56c0,130.63-105.87,236.5-236.5,236.5c-68.83,0-130.81-29.38-174.05-76.4
			c-11.36-12.29-21.43-25.87-29.93-40.37c-20.69-35.11-32.52-76.03-32.52-119.73c0-130.63,105.87-236.5,236.5-236.5
			c43.7,0,84.62,11.82,119.73,32.52c14.5,8.5,28.08,18.57,40.37,29.93C457.39,118.74,486.86,180.73,486.86,249.56z"/>
		<path class="st1" d="M486.86,249.56c0,127.67-101.16,231.7-227.72,236.32C132.57,481.25,31.41,377.23,31.41,249.56
			S132.57,17.86,259.14,13.24C385.7,17.86,486.86,121.97,486.86,249.56z"/>
		<path class="st2" d="M410.46,75.6L76.31,409.75c-11.36-12.29-21.43-25.87-29.93-40.37L370.09,45.67
			C384.59,54.17,398.08,64.24,410.46,75.6z"/>
		<path class="st3" d="M470.51,163.18L163.89,469.8c-21.71-8.5-41.85-20.14-59.86-34.37l332.12-332.12
			C450.37,121.24,462.01,141.37,470.51,163.18z"/>
		<path class="st4" d="M434.11,249.56c0,101.53-82.31,183.75-183.75,183.75c-35.38,0-68.36-9.98-96.36-27.25
			c-12.19-7.58-23.47-16.44-33.54-26.51c-7.39-7.39-14.23-15.43-20.32-24.11c-8.31-11.82-15.34-24.76-20.79-38.43
			c-8.04-20.23-12.47-42.22-12.75-65.22c0-0.74,0-1.48,0-2.22c0-101.53,82.31-183.75,183.75-183.75c0.74,0,1.48,0,2.31,0
			c23,0.28,44.99,4.8,65.22,12.75c13.67,5.45,26.51,12.38,38.43,20.79c8.59,6.1,16.63,12.84,24.11,20.32
			c10.07,10.07,19.03,21.34,26.51,33.53C424.13,181.19,434.11,214.26,434.11,249.56z"/>
		<path class="st5" d="M380.25,119.66L120.38,379.54c-7.39-7.39-14.23-15.43-20.32-24.11c-8.31-11.82-15.34-24.76-20.79-38.43
			c-8.04-20.23-12.47-42.22-12.75-65.22c0-0.74,0-1.48,0-2.22c0-101.53,82.31-183.75,183.75-183.75c0.74,0,1.48,0,2.31,0
			c23,0.28,44.99,4.8,65.22,12.75c13.67,5.45,26.51,12.38,38.43,20.79C364.82,105.44,372.86,112.27,380.25,119.66z"/>
		<path class="st0" d="M434.11,249.56c0,101.53-82.31,183.75-183.75,183.75c-3.51,0-6.93-0.09-10.35-0.28
			c96.63-5.36,173.31-85.45,173.31-183.47S336.65,71.44,239.92,66.08c3.42-0.18,6.93-0.28,10.35-0.28
			C351.8,65.81,434.11,148.12,434.11,249.56z"/>
	</g>
	<path class="st0" d="M339.23,231.45h-31.5c-10.62,0-19.31,8.68-19.31,19.31c0,10.62,8.68,19.31,19.31,19.31h11.09
		c-4.34,36.21-21.16,65.41-50.26,86.84c-5.91,4.34-13.3,4.99-19.77,1.66c-3.14-1.57-10.35-6.37-10.35-16.81v-93.12h13.21
		c10.62,0,19.31-8.68,19.31-19.31s-8.68-19.31-19.31-19.31h-13.21v-87.95c0-10.62-8.68-19.31-19.31-19.31h-44.34
		c-10.62,0-19.31,8.68-19.31,19.31s8.68,19.31,19.31,19.31h25.04v68.64h-39.36c-10.62,0-19.31,8.68-19.31,19.31
		s8.68,19.31,19.31,19.31h39.36v93.12c0,21.8,12.1,41.48,31.5,51.27c8.22,4.16,17.18,6.28,26.05,6.28
		c12.01,0,23.93-3.79,34.09-11.27c30.58-22.54,67.07-64.58,67.07-137.19C358.54,240.13,349.86,231.45,339.23,231.45z"/>
	<path class="st6" d="M363.35,231.45h-31.5c-10.62,0-19.31,8.68-19.31,19.31c0,10.62,8.68,19.31,19.31,19.31h11.09
		c-4.34,36.21-21.16,65.41-50.26,86.84c-5.91,4.34-13.3,4.99-19.77,1.66c-3.14-1.57-10.35-6.37-10.35-16.81v-93.12h13.21
		c10.62,0,19.31-8.68,19.31-19.31s-8.68-19.31-19.31-19.31h-13.21v-87.95c0-10.62-8.68-19.31-19.31-19.31h-44.34
		c-10.62,0-19.31,8.68-19.31,19.31s8.68,19.31,19.31,19.31h25.04v68.64h-39.36c-10.62,0-19.31,8.68-19.31,19.31
		s8.68,19.31,19.31,19.31h39.36v93.12c0,21.8,12.1,41.48,31.5,51.27c8.22,4.16,17.18,6.28,26.05,6.28
		c12.01,0,23.93-3.79,34.09-11.27c30.58-22.54,67.07-64.58,67.07-137.19C382.65,240.13,374.06,231.45,363.35,231.45z"/>
</g>
</svg>
