<?xml version="1.0" encoding="utf-8"?>
<!-- Generator: Adobe Illustrator 25.0.1, SVG Export Plug-In . SVG Version: 6.00 Build 0)  -->
<svg version="1.1" id="Layer_1" xmlns="http://www.w3.org/2000/svg" xmlns:xlink="http://www.w3.org/1999/xlink" x="0px" y="0px"
	 viewBox="0 0 500 500" style="enable-background:new 0 0 500 500;" xml:space="preserve">
<style type="text/css">
	.st0{fill:#FFFFFF;}
	.st1{fill:#000000;}
</style>
<g>
	<circle class="st0" cx="250.36" cy="249.56" r="249.64"/>
	<path class="st1" d="M348.25,228.11h-34.5c-11.63,0-21.15,9.51-21.15,21.15s9.51,21.15,21.15,21.15h12.14
		c-4.76,39.66-23.17,71.63-55.04,95.1c-6.48,4.76-14.57,5.46-21.65,1.82c-3.44-1.72-11.33-6.98-11.33-18.41V246.92h14.47
		c11.63,0,21.15-9.51,21.15-21.15c0-11.63-9.51-21.15-21.15-21.15h-14.47v-96.32c0-11.63-9.51-21.15-21.15-21.15h-48.56
		c-11.63,0-21.15,9.51-21.15,21.15s9.51,21.15,21.15,21.15h27.42v75.17h-43.1c-11.63,0-21.15,9.51-21.15,21.15
		c0,11.63,9.51,21.15,21.15,21.15h43.1v101.98c0,23.88,13.25,45.43,34.5,56.15c9,4.55,18.82,6.88,28.53,6.88
		c13.15,0,26.2-4.15,37.33-12.34c33.49-24.69,73.45-70.72,73.45-150.24C369.39,237.62,359.98,228.11,348.25,228.11z"/>
</g>
</svg>
