<?xml version="1.0" encoding="utf-8"?>
<!-- Generator: Adobe Illustrator 25.0.1, SVG Export Plug-In . SVG Version: 6.00 Build 0)  -->
<svg version="1.1" id="Layer_1" xmlns="http://www.w3.org/2000/svg" xmlns:xlink="http://www.w3.org/1999/xlink" x="0px" y="0px"
	 viewBox="0 0 585.8 562.9" style="enable-background:new 0 0 585.8 562.9;" xml:space="preserve">
<style type="text/css">
	.st0{fill:#F0CD00;}
	.st1{fill:#FFDE50;}
	.st2{fill:#FFEA94;}
	.st3{fill:#FAA300;}
	.st4{fill:#FFBD00;}
	.st5{fill:#F68E00;}
	.st6{fill:#402515;}
	.st7{fill:#D9936A;}
	.st8{opacity:0.35;fill:#F2CFBB;enable-background:new    ;}
	.st9{opacity:0.47;fill:#F2CFBB;enable-background:new    ;}
	.st10{fill:#7A4F36;}
	.st11{fill:#996343;}
	.st12{fill:#F2CFBB;}
	.st13{fill:#172A3D;}
	.st14{fill:#2F567C;}
	.st15{opacity:0.35;fill:#376491;enable-background:new    ;}
	.st16{opacity:0.47;fill:#376491;enable-background:new    ;}
	.st17{fill:#1F3851;}
	.st18{fill:#264467;}
	.st19{fill:#FFFFFF;}
	.st20{opacity:0.28;fill:#FFFFFF;}
	.st21{opacity:0.53;}
</style>
<rect x="-19.6" y="-22.9" width="616.6" height="616.6"/>
<g>
	<g>
		<path class="st0" d="M1177.3,450.4c0,141.4-114.6,256-256,256c-74.5,0-141.6-31.8-188.4-82.7c-12.3-13.3-23.2-28-32.4-43.7
			c-22.4-38-35.2-82.3-35.2-129.6c0-141.4,114.6-256,256-256c47.3,0,91.6,12.8,129.6,35.2c15.7,9.2,30.4,20.1,43.7,32.4
			C1145.4,308.8,1177.3,375.9,1177.3,450.4z"/>
		<path class="st1" d="M1177.3,450.4c0,138.2-109.5,250.8-246.5,255.8c-137-5-246.5-117.6-246.5-255.8s109.6-250.8,246.5-255.8
			C1067.8,199.6,1177.3,312.2,1177.3,450.4z"/>
		<path class="st2" d="M1094.6,262L732.9,623.7c-12.3-13.3-23.2-28-32.4-43.7l350.4-350.4C1066.6,238.8,1081.3,249.7,1094.6,262z"/>
		<path class="st2" d="M1159.6,356.8l-331.9,332c-23.5-9.2-45.3-21.8-64.8-37.2L1122.4,292C1137.8,311.5,1150.4,333.3,1159.6,356.8z
			"/>
		<path class="st3" d="M1120.2,450.4c0,109.9-89.1,198.9-198.9,198.9c-38.3,0-74-10.8-104.3-29.5c-13.2-8.2-25.4-17.8-36.3-28.7
			c-8-8-15.4-16.7-22-26.1c-9-12.8-16.6-26.8-22.5-41.6c-8.7-21.9-13.5-45.7-13.8-70.6c0-0.8,0-1.6,0-2.4
			c0-109.9,89.1-198.9,198.9-198.9c0.8,0,1.6,0,2.5,0c24.9,0.3,48.7,5.2,70.6,13.8c14.8,5.9,28.7,13.4,41.6,22.5
			c9.3,6.6,18,13.9,26.1,22c10.9,10.9,20.6,23.1,28.7,36.3C1109.4,376.4,1120.2,412.1,1120.2,450.4z"/>
		<path class="st4" d="M1062,309.7L780.6,591.1c-8-8-15.4-16.7-22-26.1c-9-12.8-16.6-26.8-22.5-41.6c-8.7-21.9-13.5-45.7-13.8-70.6
			c0-0.8,0-1.6,0-2.4c0-109.9,89.1-198.9,198.9-198.9c0.8,0,1.6,0,2.5,0c24.9,0.3,48.7,5.2,70.6,13.8c14.8,5.9,28.7,13.4,41.6,22.5
			C1045.2,294.4,1053.9,301.7,1062,309.7z"/>
		<path class="st5" d="M1120.2,450.4c0,109.9-89.1,198.9-198.9,198.9c-3.8,0-7.5-0.1-11.2-0.3c104.6-5.8,187.7-92.5,187.7-198.6
			s-83-192.8-187.7-198.6c3.7-0.2,7.5-0.3,11.2-0.3C1031.2,251.5,1120.2,340.5,1120.2,450.4z"/>
	</g>
	<path class="st5" d="M1017.5,430.8h-34.1c-11.5,0-20.9,9.4-20.9,20.9s9.4,20.9,20.9,20.9h12c-4.7,39.2-22.9,70.8-54.4,94
		c-6.4,4.7-14.4,5.4-21.4,1.8c-3.4-1.7-11.2-6.9-11.2-18.2V449.4h14.3c11.5,0,20.9-9.4,20.9-20.9s-9.4-20.9-20.9-20.9h-14.3v-95.2
		c0-11.5-9.4-20.9-20.9-20.9h-48c-11.5,0-20.9,9.4-20.9,20.9s9.4,20.9,20.9,20.9h27.1v74.3H824c-11.5,0-20.9,9.4-20.9,20.9
		s9.4,20.9,20.9,20.9h42.6v100.8c0,23.6,13.1,44.9,34.1,55.5c8.9,4.5,18.6,6.8,28.2,6.8c13,0,25.9-4.1,36.9-12.2
		c33.1-24.4,72.6-69.9,72.6-148.5C1038.4,440.1,1029,430.8,1017.5,430.8z"/>
	<path class="st2" d="M1043.6,430.8h-34.1c-11.5,0-20.9,9.4-20.9,20.9s9.4,20.9,20.9,20.9h12c-4.7,39.2-22.9,70.8-54.4,94
		c-6.4,4.7-14.4,5.4-21.4,1.8c-3.4-1.7-11.2-6.9-11.2-18.2V449.4h14.3c11.5,0,20.9-9.4,20.9-20.9s-9.4-20.9-20.9-20.9h-14.3v-95.2
		c0-11.5-9.4-20.9-20.9-20.9h-48c-11.5,0-20.9,9.4-20.9,20.9s9.4,20.9,20.9,20.9h27.1v74.3h-42.6c-11.5,0-20.9,9.4-20.9,20.9
		s9.4,20.9,20.9,20.9h42.6v100.8c0,23.6,13.1,44.9,34.1,55.5c8.9,4.5,18.6,6.8,28.2,6.8c13,0,25.9-4.1,36.9-12.2
		c33.1-24.4,72.6-69.9,72.6-148.5C1064.5,440.1,1055.2,430.8,1043.6,430.8z"/>
</g>
<path class="st0" d="M8.3,944.8c0,141.4-114.6,256-256,256c-74.5,0-141.6-31.8-188.4-82.7c-12.3-13.3-23.2-28-32.4-43.7
	c-22.4-38-35.2-82.3-35.2-129.6c0-141.4,114.6-256,256-256c47.3,0,91.6,12.8,129.6,35.2c15.7,9.2,30.4,20.1,43.7,32.4
	C-23.6,803.2,8.3,870.3,8.3,944.8z"/>
<path class="st2" d="M-74.4,756.4l-361.7,361.7c-12.3-13.3-23.2-28-32.4-43.7L-118.1,724C-102.4,733.2-87.7,744.1-74.4,756.4z"/>
<path class="st2" d="M-9.4,851.2l-331.9,332c-23.5-9.2-45.3-21.8-64.8-37.2l359.5-359.6C-31.2,805.9-18.6,827.7-9.4,851.2z"/>
<path class="st3" d="M-48.8,944.8c0,109.9-89.1,198.9-198.9,198.9c-38.3,0-74-10.8-104.3-29.5c-13.2-8.2-25.4-17.8-36.3-28.7
	c-8-8-15.4-16.7-22-26.1c-9-12.8-16.6-26.8-22.5-41.6c-8.7-21.9-13.5-45.7-13.8-70.6c0-0.8,0-1.6,0-2.4
	c0-109.9,89.1-198.9,198.9-198.9c0.8,0,1.6,0,2.5,0c24.9,0.3,48.7,5.2,70.6,13.8c14.8,5.9,28.7,13.4,41.6,22.5
	c9.3,6.6,18,13.9,26.1,22c10.9,10.9,20.6,23.1,28.7,36.3C-59.6,870.8-48.8,906.5-48.8,944.8z"/>
<path class="st4" d="M-107,804.1l-281.4,281.4c-8-8-15.4-16.7-22-26.1c-9-12.8-16.6-26.8-22.5-41.6c-8.7-21.9-13.5-45.7-13.8-70.6
	c0-0.8,0-1.6,0-2.4c0-109.9,89.1-198.9,198.9-198.9c0.8,0,1.6,0,2.5,0c24.9,0.3,48.7,5.2,70.6,13.8c14.8,5.9,28.7,13.4,41.6,22.5
	C-123.8,788.8-115.1,796.1-107,804.1z"/>
<path class="st5" d="M-48.8,944.8c0,109.9-89.1,198.9-198.9,198.9c-3.8,0-7.5-0.1-11.2-0.3c104.6-5.8,187.7-92.5,187.7-198.6
	s-83-192.8-187.7-198.6c3.7-0.2,7.5-0.3,11.2-0.3C-137.8,745.9-48.8,834.9-48.8,944.8z"/>
<g>
	<g>
		<path class="st6" d="M-132.3,271.9c0,141.4-114.6,256-256,256c-74.5,0-141.6-31.8-188.4-82.7c-12.3-13.3-23.2-28-32.4-43.7
			c-22.4-38-35.2-82.3-35.2-129.6c0-141.4,114.6-256,256-256c47.3,0,91.6,12.8,129.6,35.2c15.7,9.2,30.4,20.1,43.7,32.4
			C-164.2,130.3-132.3,197.4-132.3,271.9z"/>
		<path class="st7" d="M-132.3,271.9c0,138.2-109.5,250.8-246.5,255.8c-137-5-246.5-117.6-246.5-255.8S-515.8,21.1-378.8,16.1
			C-241.8,21.1-132.3,133.8-132.3,271.9z"/>
		<path class="st8" d="M-215,83.6l-361.7,361.7c-12.3-13.3-23.2-28-32.4-43.7l350.4-350.4C-243,60.4-228.4,71.3-215,83.6z"/>
		<path class="st9" d="M-150,178.4l-331.9,331.9c-23.5-9.2-45.3-21.8-64.8-37.2l359.5-359.5C-171.8,133-159.2,154.8-150,178.4z"/>
		<path class="st10" d="M-189.4,271.9c0,109.9-89.1,198.9-198.9,198.9c-38.3,0-74-10.8-104.3-29.5c-13.2-8.2-25.4-17.8-36.3-28.7
			c-8-8-15.4-16.7-22-26.1c-9-12.8-16.6-26.8-22.5-41.6c-8.7-21.9-13.5-45.7-13.8-70.6c0-0.8,0-1.6,0-2.4
			C-587.2,162-498.1,73-388.3,73c0.8,0,1.6,0,2.5,0c24.9,0.3,48.7,5.2,70.6,13.8c14.8,5.9,28.7,13.4,41.6,22.5
			c9.3,6.6,18,13.9,26.1,22c10.9,10.9,20.6,23.1,28.7,36.3C-200.2,197.9-189.4,233.7-189.4,271.9z"/>
		<path class="st11" d="M-247.7,131.3L-529,412.6c-8-8-15.4-16.7-22-26.1c-9-12.8-16.6-26.8-22.5-41.6
			c-8.7-21.9-13.5-45.7-13.8-70.6c0-0.8,0-1.6,0-2.4C-587.3,162-498.2,73-388.4,73c0.8,0,1.6,0,2.5,0c24.9,0.3,48.7,5.2,70.6,13.8
			c14.8,5.9,28.7,13.4,41.6,22.5C-264.4,115.9-255.7,123.3-247.7,131.3z"/>
		<path class="st6" d="M-189.4,271.9c0,109.9-89.1,198.9-198.9,198.9c-3.8,0-7.5-0.1-11.2-0.3c104.6-5.8,187.7-92.5,187.7-198.6
			s-83-192.8-187.7-198.6c3.7-0.2,7.5-0.3,11.2-0.3C-278.5,73-189.4,162.1-189.4,271.9z"/>
	</g>
	<path class="st6" d="M-292.1,252.3h-34.1c-11.5,0-20.9,9.4-20.9,20.9s9.4,20.9,20.9,20.9h12c-4.7,39.2-22.9,70.8-54.4,94
		c-6.4,4.7-14.4,5.4-21.4,1.8c-3.4-1.7-11.2-6.9-11.2-18.2V270.9h14.3c11.5,0,20.9-9.4,20.9-20.9s-9.4-20.9-20.9-20.9h-14.3v-95.2
		c0-11.5-9.4-20.9-20.9-20.9h-48c-11.5,0-20.9,9.4-20.9,20.9s9.4,20.9,20.9,20.9h27.1v74.3h-42.6c-11.5,0-20.9,9.4-20.9,20.9
		c0,11.5,9.4,20.9,20.9,20.9h42.6v100.8c0,23.6,13.1,44.9,34.1,55.5c8.9,4.5,18.6,6.8,28.2,6.8c13,0,25.9-4.1,36.9-12.2
		c33.1-24.4,72.6-69.9,72.6-148.5C-271.2,261.7-280.6,252.3-292.1,252.3z"/>
	<path class="st12" d="M-266,252.3h-34.1c-11.5,0-20.9,9.4-20.9,20.9s9.4,20.9,20.9,20.9h12c-4.7,39.2-22.9,70.8-54.4,94
		c-6.4,4.7-14.4,5.4-21.4,1.8c-3.4-1.7-11.2-6.9-11.2-18.2V270.9h14.3c11.5,0,20.9-9.4,20.9-20.9s-9.4-20.9-20.9-20.9h-14.3v-95.2
		c0-11.5-9.4-20.9-20.9-20.9h-48c-11.5,0-20.9,9.4-20.9,20.9s9.4,20.9,20.9,20.9h27.1v74.3h-42.6c-11.5,0-20.9,9.4-20.9,20.9
		c0,11.5,9.4,20.9,20.9,20.9h42.6v100.8c0,23.6,13.1,44.9,34.1,55.5c8.9,4.5,18.6,6.8,28.2,6.8c13,0,25.9-4.1,36.9-12.2
		c33.1-24.4,72.6-69.9,72.6-148.5C-245.1,261.7-254.4,252.3-266,252.3z"/>
</g>
<g>
	<g>
		<path class="st13" d="M-799.7,271.9c0,141.4-114.6,256-256,256c-74.5,0-141.6-31.8-188.4-82.7c-12.3-13.3-23.2-28-32.4-43.7
			c-22.4-38-35.2-82.3-35.2-129.6c0-141.4,114.6-256,256-256c47.3,0,91.6,12.8,129.6,35.2c15.7,9.2,30.4,20.1,43.7,32.4
			C-831.6,130.3-799.7,197.4-799.7,271.9z"/>
		<path class="st14" d="M-799.7,271.9c0,138.2-109.5,250.8-246.5,255.8c-137-5-246.5-117.6-246.5-255.8s109.5-250.8,246.5-255.8
			C-909.2,21.1-799.7,133.8-799.7,271.9z"/>
		<path class="st15" d="M-882.4,83.6l-361.7,361.7c-12.3-13.3-23.2-28-32.4-43.7l350.4-350.4C-910.4,60.4-895.8,71.3-882.4,83.6z"/>
		<path class="st16" d="M-817.4,178.4l-331.9,331.9c-23.5-9.2-45.3-21.8-64.8-37.2l359.5-359.5C-839.2,133-826.6,154.8-817.4,178.4z
			"/>
		<path class="st17" d="M-856.8,271.9c0,109.9-89.1,198.9-198.9,198.9c-38.3,0-74-10.8-104.3-29.5c-13.2-8.2-25.4-17.8-36.3-28.7
			c-8-8-15.4-16.7-22-26.1c-9-12.8-16.6-26.8-22.5-41.6c-8.7-21.9-13.5-45.7-13.8-70.6c0-0.8,0-1.6,0-2.4
			c0-109.9,89.1-198.9,198.9-198.9c0.8,0,1.6,0,2.5,0c24.9,0.3,48.7,5.2,70.6,13.8c14.8,5.9,28.7,13.4,41.6,22.5
			c9.3,6.6,18,13.9,26.1,22c10.9,10.9,20.6,23.1,28.7,36.3C-867.6,197.9-856.8,233.7-856.8,271.9z"/>
		<path class="st18" d="M-915.1,131.3l-281.3,281.3c-8-8-15.4-16.7-22-26.1c-9-12.8-16.6-26.8-22.5-41.6
			c-8.7-21.9-13.5-45.7-13.8-70.6c0-0.8,0-1.6,0-2.4c0-109.9,89.1-198.9,198.9-198.9c0.8,0,1.6,0,2.5,0c24.9,0.3,48.7,5.2,70.6,13.8
			c14.8,5.9,28.7,13.4,41.6,22.5C-931.8,115.9-923.1,123.3-915.1,131.3z"/>
		<path class="st13" d="M-856.8,271.9c0,109.9-89.1,198.9-198.9,198.9c-3.8,0-7.5-0.1-11.2-0.3c104.6-5.8,187.6-92.5,187.6-198.6
			s-83-192.8-187.7-198.6c3.7-0.2,7.5-0.3,11.2-0.3C-945.9,73-856.8,162.1-856.8,271.9z"/>
	</g>
	<path class="st13" d="M-959.5,252.3h-34.1c-11.5,0-20.9,9.4-20.9,20.9s9.4,20.9,20.9,20.9h12c-4.7,39.2-22.9,70.8-54.4,94
		c-6.4,4.7-14.4,5.4-21.4,1.8c-3.4-1.7-11.2-6.9-11.2-18.2V270.9h14.3c11.5,0,20.9-9.4,20.9-20.9s-9.4-20.9-20.9-20.9h-14.3v-95.2
		c0-11.5-9.4-20.9-20.9-20.9h-48c-11.5,0-20.9,9.4-20.9,20.9s9.4,20.9,20.9,20.9h27.1v74.3h-42.6c-11.5,0-20.9,9.4-20.9,20.9
		c0,11.5,9.4,20.9,20.9,20.9h42.6v100.8c0,23.6,13.1,44.9,34.1,55.5c8.9,4.5,18.6,6.8,28.2,6.8c13,0,25.9-4.1,36.9-12.2
		c33.1-24.4,72.6-69.9,72.6-148.5C-938.6,261.7-948,252.3-959.5,252.3z"/>
	<path class="st19" d="M-933.4,252.3h-34.1c-11.5,0-20.9,9.4-20.9,20.9s9.4,20.9,20.9,20.9h12c-4.7,39.2-22.9,70.8-54.4,94
		c-6.4,4.7-14.4,5.4-21.4,1.8c-3.4-1.7-11.2-6.9-11.2-18.2V270.9h14.3c11.5,0,20.9-9.4,20.9-20.9s-9.4-20.9-20.9-20.9h-14.3v-95.2
		c0-11.5-9.4-20.9-20.9-20.9h-48c-11.5,0-20.9,9.4-20.9,20.9s9.4,20.9,20.9,20.9h27.1v74.3h-42.6c-11.5,0-20.9,9.4-20.9,20.9
		c0,11.5,9.4,20.9,20.9,20.9h42.6v100.8c0,23.6,13.1,44.9,34.1,55.5c8.9,4.5,18.6,6.8,28.2,6.8c13,0,25.9-4.1,36.9-12.2
		c33.1-24.4,72.6-69.9,72.6-148.5C-912.5,261.7-921.8,252.3-933.4,252.3z"/>
</g>
<g>
	<path class="st20" d="M403.9,270.3h-34.1c-11.5,0-20.9,9.4-20.9,20.9s9.4,20.9,20.9,20.9h12c-4.7,39.2-22.9,70.8-54.4,94
		c-6.4,4.7-14.4,5.4-21.4,1.8c-3.4-1.7-11.2-6.9-11.2-18.2V288.9h14.3c11.5,0,20.9-9.4,20.9-20.9s-9.4-20.9-20.9-20.9h-14.3v-95.2
		c0-11.5-9.4-20.9-20.9-20.9h-48c-11.5,0-20.9,9.4-20.9,20.9s9.4,20.9,20.9,20.9H253v74.3h-42.6c-11.5,0-20.9,9.4-20.9,20.9
		s9.4,20.9,20.9,20.9H253v100.8c0,23.6,13.1,44.9,34.1,55.5c8.9,4.5,18.6,6.8,28.2,6.8c13,0,25.9-4.1,36.9-12.2
		c33.1-24.4,72.6-69.9,72.6-148.5C424.8,279.6,415.4,270.3,403.9,270.3z"/>
	<path class="st19" d="M416.2,252.9h-34.1c-11.5,0-20.9,9.4-20.9,20.9s9.4,20.9,20.9,20.9h12c-4.7,39.2-22.9,70.8-54.4,94
		c-6.4,4.7-14.4,5.4-21.4,1.8c-3.4-1.7-11.2-6.9-11.2-18.2V271.5h14.3c11.5,0,20.9-9.4,20.9-20.9c0-11.5-9.4-20.9-20.9-20.9h-14.3
		v-95.2c0-11.5-9.4-20.9-20.9-20.9h-48c-11.5,0-20.9,9.4-20.9,20.9s9.4,20.9,20.9,20.9h27.1v74.3h-42.6c-11.5,0-20.9,9.4-20.9,20.9
		s9.4,20.9,20.9,20.9h42.6v100.8c0,23.6,13.1,44.9,34.1,55.5c8.9,4.5,18.6,6.8,28.2,6.8c13,0,25.9-4.1,36.9-12.2
		c33.1-24.4,72.6-69.9,72.6-148.5C437.1,262.2,427.8,252.9,416.2,252.9z"/>
	<g>
		<path class="st19" d="M575.8,10v528.3H18.3V10H575.8 M585.8,0H8.3v548.3h577.5V0L585.8,0z"/>
	</g>
	<g class="st21">
		<path class="st19" d="M567.5,21.2v528.3H10V21.2H567.5 M577.5,11.2H0v548.3h577.5V11.2L577.5,11.2z"/>
	</g>
</g>
<path class="st19" d="M347.3-206"/>
<polyline class="st19" points="386.2,36.3 552.5,36.3 552.5,202.7 "/>
<polyline class="st19" points="201.8,517.2 35.5,517.2 35.5,350.9 "/>
<path class="st19" d="M629.7-22.9"/>
</svg>
